<svg width="181" height="94" viewBox="0 0 181 94" fill="none" xmlns="http://www.w3.org/2000/svg">
<g id="Warstwa_1" clip-path="url(#clip0_523_1850)">
<path id="Vector" d="M0.125916 94C-0.187213 92.9661 0.0215395 92.7163 1.24506 92.7163C11.1666 92.7163 21.0881 92.7047 31.0155 92.7047C70.5393 92.7047 110.057 92.7047 149.581 92.7047C159.769 92.7047 169.958 92.7105 180.152 92.7163C181.051 92.7163 181.097 92.7918 180.935 94H0.125916Z" fill="#68B236"/>
<path id="Vector_2" d="M125.038 38.8012C125.038 39.2775 125.038 39.7538 125.038 40.2301C125.049 44.8654 125.055 49.5064 125.084 54.1416C125.084 54.6238 124.91 54.6935 124.493 54.6877C122.092 54.6702 119.691 54.6644 117.291 54.6935C116.833 54.6935 116.728 54.5831 116.728 54.13C116.734 43.0589 116.728 31.9878 116.711 20.9167C116.711 20.2777 116.873 20.0454 117.54 20.0628C121.831 20.1732 126.128 19.9757 130.419 20.1441C132.141 20.208 133.858 20.3532 135.51 20.8818C136.867 21.3174 138.207 21.8402 139.314 22.7464C141.726 24.7155 142.619 27.3584 142.445 30.402C142.306 32.8649 141.338 34.985 139.471 36.5765C138.473 37.4304 137.354 38.1855 135.945 38.3946C135.406 38.4759 134.843 38.778 134.281 38.9639C133.927 39.0858 134.095 39.4169 134.293 39.6667C134.814 40.3289 135.365 40.9736 135.835 41.6707C137.302 43.8489 138.676 46.1026 140.213 48.2285C141.494 50.0118 142.619 51.8995 143.942 53.6537C144.029 53.7699 144.104 53.8977 144.162 54.0255C144.249 54.2172 144.504 54.3914 144.382 54.6005C144.26 54.8154 143.982 54.6877 143.773 54.6877C141.106 54.6818 138.439 54.6528 135.771 54.6702C135.191 54.6702 134.861 54.4902 134.553 53.9848C131.782 49.489 128.975 45.0106 126.186 40.5206C125.826 39.9455 125.513 39.3472 125.177 38.7606C125.131 38.7722 125.084 38.7838 125.032 38.7954L125.038 38.8012ZM127.009 25.7378C126.551 25.7378 126.087 25.7668 125.629 25.732C125.142 25.6913 125.02 25.8772 125.026 26.3535C125.055 28.3923 125.049 30.4253 125.026 32.4641C125.02 33.1088 125.102 33.7478 124.922 34.3983C124.829 34.7236 125.096 35.136 125.508 34.9095C125.867 34.7178 126.203 34.7294 126.551 34.7352C128.036 34.7585 129.503 34.6016 130.964 34.3867C132.402 34.1776 133.626 33.5793 134.084 32.0575C134.333 31.2152 134.31 30.344 134.194 29.4669C133.991 27.9044 133.127 26.8995 131.66 26.4464C130.146 25.9759 128.587 25.8017 127.004 25.7436L127.009 25.7378Z" fill="#67656B"/>
<path id="Vector_3" d="M155.574 36.9251C155.574 37.837 155.574 38.7548 155.574 39.6667C155.58 44.4995 155.586 49.3264 155.609 54.1591C155.609 54.5483 155.493 54.6645 155.116 54.6645C152.64 54.6645 150.17 54.6703 147.694 54.7051C147.079 54.7109 147.276 54.2927 147.276 54.0081C147.276 47.9614 147.282 41.9205 147.282 35.8737C147.282 30.8493 147.282 25.8249 147.253 20.8005C147.253 20.2255 147.381 20.0396 148.001 20.0454C150.257 20.0803 152.512 20.0454 154.768 20.0106C155.4 19.9989 155.615 20.1674 155.615 20.8586C155.58 25.732 155.597 30.6112 155.597 35.5775C156.102 34.927 156.554 34.3229 157.03 33.7362C159.616 30.5531 162.208 27.3758 164.794 24.1985C165.82 22.9381 166.847 21.6834 167.856 20.4172C168.122 20.0803 168.47 20.0396 168.83 20.0396C171.573 20.0396 174.31 20.0512 177.052 20.0686C177.215 20.0686 177.418 20.0396 177.464 20.2603C177.511 20.4694 177.412 20.6321 177.25 20.7657C176.27 21.5614 175.51 22.5779 174.687 23.5073C173.811 24.489 173.005 25.5519 172.089 26.4987C170.941 27.6895 170.013 29.0603 168.812 30.2162C168.041 30.9539 167.461 31.9123 166.725 32.7139C165.965 33.5387 165.246 34.3984 164.463 35.1941C164.063 35.6066 164.116 35.9086 164.429 36.321C165.797 38.11 167.148 39.9107 168.505 41.7114C171.532 45.7251 174.553 49.7388 177.58 53.7525C177.696 53.9093 177.812 54.0604 177.916 54.223C178.131 54.5483 178.05 54.7109 177.65 54.6935C174.669 54.5541 171.683 54.6412 168.702 54.6761C168.349 54.6761 168.128 54.5134 167.937 54.2288C166.348 51.8241 164.655 49.489 162.979 47.1482C161.002 44.3891 159.036 41.6184 157.053 38.8652C156.589 38.2262 156.189 37.5408 155.76 36.8786C155.696 36.8961 155.632 36.9135 155.568 36.9309L155.574 36.9251Z" fill="#67656B"/>
<path id="Vector_4" d="M103.403 54.9374C103.067 54.9896 102.835 54.7863 102.615 54.6179C97.6628 50.7668 92.5193 47.1655 87.4629 43.4538C82.0121 39.4575 76.5498 35.4729 71.0758 31.494C67.3125 28.7582 63.5259 26.0514 59.7568 23.333C58.8754 22.694 58.0926 21.9215 57.1126 21.4219C56.898 21.3116 56.6371 21.1257 56.7125 20.8759C56.7995 20.5797 57.1358 20.7249 57.3503 20.7249C68.9245 20.7191 80.4929 20.7191 92.067 20.7249C99.1008 20.7249 106.135 20.7249 113.174 20.7423C113.621 20.7423 114.311 20.6436 114.421 21.0328C114.531 21.4394 113.812 21.5091 113.476 21.753C111.962 22.845 110.437 23.9138 108.924 25.0058C105.172 27.7184 101.432 30.4368 97.6802 33.1494C96.6306 33.9104 96.6712 33.9568 97.0829 35.165C98.0397 37.9996 98.9327 40.8574 99.8489 43.7094C100.846 46.7879 101.826 49.8723 102.853 52.945C103.073 53.6014 103.496 54.1881 103.421 54.9374H103.403ZM95.7376 44.0928C94.9316 42.3618 94.4967 40.7296 93.9748 39.1264C93.279 36.9831 92.5947 34.8397 91.8931 32.6964C91.7945 32.3943 91.7887 32.2143 92.1134 31.9877C94.4677 30.3265 96.7988 28.6246 99.1356 26.9401C99.988 26.3244 100.852 25.7261 101.78 25.0697C101.444 24.9013 101.154 24.9187 100.869 24.9245C92.4555 25.1046 84.0417 25.0233 75.6278 24.9942C73.7606 24.9884 71.8934 25.0755 70.0263 24.9303C69.8291 24.9129 69.5392 24.8316 69.4522 25.0813C69.3362 25.4008 69.6551 25.4589 69.8523 25.5751C70.2234 25.79 70.6177 25.9875 70.9656 26.2372C74.526 28.7988 78.0864 31.3546 81.6236 33.951C85.9436 37.1167 90.3332 40.1778 94.5547 43.4771C94.8446 43.7036 95.1577 43.872 95.7318 44.0812L95.7376 44.0928Z" fill="#68B236"/>
<path id="Vector_5" d="M30.8769 37.291C30.8769 31.7612 30.8769 26.2257 30.8711 20.6959C30.8711 20.2661 30.9059 20.0628 31.4394 20.0686C34.5649 20.1093 37.6961 20.0105 40.8216 20.1383C43.0483 20.2312 45.3098 20.1615 47.4901 20.8528C49.5196 21.4975 51.4332 22.2933 52.8655 23.9603C54.0832 25.3834 54.7385 27.0505 54.953 28.8802C55.3009 31.8368 54.924 34.6771 52.9699 37.047C51.3172 39.051 49.1369 40.2592 46.5913 40.8633C44.353 41.3976 42.0915 41.4674 39.8127 41.4151C39.2792 41.4035 39.1864 41.5719 39.1922 42.0598C39.2096 45.7947 39.2096 49.5354 39.1806 53.2704C39.1806 53.7292 39.5575 54.3333 39.111 54.6179C38.7863 54.8212 38.218 54.6412 37.7599 54.6412C35.626 54.6528 33.4921 54.6528 31.3582 54.6935C30.9813 54.6993 30.8827 54.5424 30.8769 54.2404C30.8769 53.6595 30.8885 53.0787 30.8885 52.4978C30.8885 47.4269 30.8885 42.3561 30.8885 37.2852C30.8885 37.2852 30.8885 37.2852 30.8827 37.2852L30.8769 37.291ZM39.1748 30.5763C39.1748 30.5763 39.2328 30.5763 39.2618 30.5763C39.2618 32.1272 39.2618 33.6781 39.2618 35.229C39.2618 35.4323 39.1574 35.7285 39.6097 35.6646C40.6361 35.5078 41.6798 35.6065 42.7178 35.4381C44.2081 35.1999 46.0926 34.1311 46.3652 32.6151C46.4869 31.9471 46.6261 31.2733 46.6319 30.6053C46.6493 28.613 45.9361 26.9227 44.2718 26.2373C42.7352 25.6042 41.1464 25.6681 39.5633 25.5984C39.0994 25.5809 39.1806 25.9178 39.1806 26.2024C39.1806 27.6604 39.1806 29.1125 39.1806 30.5705L39.1748 30.5763Z" fill="#67656B"/>
<path id="Vector_6" d="M14.0028 19.2438C16.8268 19.1509 19.3898 19.6388 21.7324 20.998C22.782 21.6079 23.7214 22.3804 24.5042 23.3272C24.8405 23.7338 24.7825 24.0126 24.3708 24.3553C22.9792 25.4822 21.5527 26.5684 20.3755 27.9334C20.2132 28.1193 20.1262 28.0147 20.0392 27.9334C19.8827 27.7882 19.7319 27.6256 19.6043 27.4455C18.5258 25.9527 17.0471 25.1976 15.2263 25.0756C13.7129 24.971 12.1762 25.0001 10.8541 25.7494C10.0771 26.1908 9.36386 26.9227 9.09712 27.8753C8.85937 28.735 8.86517 29.583 9.42764 30.373C10.4888 31.8658 12.0313 32.6616 13.6433 33.347C16.1831 34.4274 18.7925 35.3509 21.1178 36.8728C23.6228 38.5108 25.6292 40.567 26.0641 43.663C26.6149 47.6012 24.9971 51.2083 21.5701 53.2994C18.4562 55.1988 15.0002 55.6693 11.3934 55.4892C8.89416 55.3615 6.48771 54.9432 4.24942 53.7989C2.74756 53.0322 1.54144 51.9112 0.584655 50.5287C0.404896 50.2673 0.422292 50.0815 0.671635 49.8491C2.02273 48.6003 3.32163 47.2934 4.53356 45.8993C4.7887 45.6031 5.01485 45.4114 5.28159 45.9283C6.48771 48.3099 8.61583 49.2741 11.1151 49.5296C12.9126 49.7155 14.6754 49.5355 16.2933 48.5829C18.0851 47.5257 19.123 44.5982 16.9079 42.8266C16.0323 42.1237 15.1219 41.4964 14.1188 41.0085C11.4514 39.6957 8.61583 38.7257 6.12239 37.0761C4.45817 35.9783 2.80555 34.8049 1.88356 32.981C0.451285 30.1465 0.486078 27.2828 2.25468 24.5819C4.08706 21.7763 6.84723 20.3939 10.0307 19.6852C11.3876 19.3832 12.7445 19.1973 14.0028 19.2612V19.2438Z" fill="#67656B"/>
<path id="Vector_7" d="M71.8981 68.8083C71.4342 69.0581 71.2834 69.4879 71.1443 69.8771C70.4368 71.8984 69.3467 73.7398 68.4479 75.6682C67.3635 77.9974 66.2676 80.3209 65.1832 82.6443C65.1021 82.8185 65.0731 83.016 64.9919 83.1903C64.8875 83.4052 65.0093 83.7828 64.6034 83.7944C64.2728 83.8002 64.1569 83.5388 64.0641 83.289C63.6234 82.1041 62.9565 81.0237 62.4869 79.8562C61.0082 76.1852 58.9555 72.7813 57.6044 69.0581C57.5754 68.9767 57.4942 68.9186 57.442 68.8489C57.21 68.9942 57.2332 69.1916 57.2274 69.3833C57.1231 72.8278 56.3808 76.2142 56.2069 79.6529C56.1547 80.6403 56.0445 81.622 55.9169 82.6036C55.859 83.0625 55.598 83.1148 55.3023 83.2309C55.2385 83.2542 55.1573 83.2368 55.0877 83.2426C53.812 83.3181 53.7772 83.3181 53.9396 82.0692C54.2875 79.3799 54.6876 76.6905 55.0529 74.0011C55.511 70.6147 56.0909 67.2458 56.3113 63.8303C56.3287 63.5922 56.3287 63.3889 56.6418 63.3947C56.8621 63.3947 57.1057 63.3657 57.1521 63.6619C57.3724 65.085 58.2306 66.2409 58.7815 67.5246C60.4805 71.4512 62.4173 75.2732 64.0699 79.2288C64.1047 79.316 64.1395 79.4089 64.1859 79.496C64.2728 79.6354 64.2844 79.8678 64.4874 79.8678C64.6845 79.8678 64.7309 79.6587 64.7889 79.5077C65.2992 78.0904 66.0356 76.7776 66.6677 75.4184C68.4537 71.5732 70.2745 67.7453 72.0837 63.9117C72.1938 63.6793 72.391 63.5167 72.6519 63.4993C73.0115 63.4702 72.9071 63.7723 72.9187 63.9581C73.0926 66.9147 73.5507 69.8364 73.9334 72.7697C74.2988 75.5811 74.6989 78.3866 75.0874 81.1979C75.157 81.7033 75.2671 82.197 75.3483 82.7024C75.3715 82.8592 75.4701 83.1032 75.2787 83.1612C74.6931 83.3471 74.0726 83.3123 73.4869 83.1961C73.0694 83.1148 73.1796 82.6501 73.1448 82.3248C72.7853 78.5841 72.4316 74.8376 72.0663 71.0969C71.9909 70.3592 72.0953 69.6041 71.9097 68.8199L71.8981 68.8083Z" fill="#68B236"/>
<path id="Vector_8" d="M134.609 63.4354C137.566 63.4993 140.553 64.783 142.785 67.5014C145.667 71.0097 145.731 76.3072 142.362 80.0246C139.277 83.4285 133.722 84.6424 129.471 82.8999C126.526 81.6917 124.38 79.6819 123.319 76.6324C122.13 73.2286 122.977 69.2091 125.656 66.6475C128.016 64.3938 130.857 63.4702 134.609 63.4296V63.4354ZM142.715 73.6178C142.872 70.1791 140.315 67.2051 138.024 66.1305C134.696 64.5622 131.472 64.7539 128.393 66.8682C125.517 68.8432 124.189 72.9208 125.366 76.1619C126.96 80.5532 131.344 82.47 135.525 81.8195C139.781 81.1631 142.86 77.1668 142.715 73.6178Z" fill="#68B236"/>
<path id="Vector_9" d="M40.4464 63.4005C43.972 63.6445 47.0569 64.8643 49.2835 67.8266C51.9046 71.3118 51.6262 76.6905 48.6921 79.9259C47.6483 81.076 46.4364 81.9821 45.0215 82.592C40.5681 84.4914 35.0768 84.1603 31.3134 79.7632C27.1558 74.9015 28.6576 67.3213 35.2217 64.4286C36.1321 64.0278 37.0947 63.7548 38.0747 63.598C38.8401 63.476 39.6171 63.4644 40.4464 63.4005ZM40.1796 65.1373C39.333 65.1431 38.4748 65.1837 37.6572 65.4045C34.3172 66.2874 30.7742 69.6099 31.2381 74.2916C31.5106 77.0797 32.9081 79.1882 35.2333 80.5939C37.7906 82.1447 40.5623 82.3887 43.4037 81.3548C45.9841 80.4196 47.8455 78.6422 48.5703 76.0341C50.3505 69.6273 45.1607 65.0734 40.1796 65.1373Z" fill="#68B236"/>
<path id="Vector_10" d="M88.9693 83.6607C84.8232 83.5794 81.5238 81.9297 79.3435 78.3168C77.024 74.4832 77.8706 69.3252 81.2338 66.3744C85.838 62.3375 92.8196 62.3781 97.273 66.6067C99.5461 68.7675 100.393 71.5557 100.056 74.6981C99.4765 80.1698 94.2171 83.7478 88.9635 83.6549L88.9693 83.6607ZM97.9456 73.548C98.0732 71.4279 97.0004 69.3774 95.8175 68.0647C92.4137 64.2717 85.7858 63.9464 82.1326 68.3319C79.8132 71.12 79.5116 75.0001 81.6455 78.0961C83.4083 80.6577 85.9018 81.7845 88.9287 81.953C93.7996 82.2144 98.1544 78.1716 97.9456 73.5538V73.548Z" fill="#68B236"/>
<path id="Vector_11" d="M163.343 78.8744C163.343 78.038 163.343 77.248 163.343 76.4581C163.332 72.4792 163.332 68.4945 163.291 64.5157C163.291 63.9813 163.407 63.8186 163.946 63.7838C165.477 63.685 165.216 63.6502 165.216 64.9862C165.216 70.4462 165.228 75.9063 165.216 81.3721C165.216 82.1156 165.471 82.8475 165.297 83.6026C164.775 83.591 164.503 83.2192 164.242 82.8998C161.702 79.8038 158.861 76.9808 156.234 73.9604C154.587 72.061 152.819 70.2661 151.23 68.3087C151.119 68.1751 151.004 67.9485 150.772 68.0589C150.592 68.146 150.661 68.3609 150.667 68.5236C150.812 72.456 150.731 76.3826 150.76 80.315C150.76 81.0933 150.76 81.8717 150.818 82.6442C150.853 83.1205 150.673 83.2134 150.255 83.2367C148.777 83.3064 148.783 83.318 148.783 81.802C148.777 75.8772 148.759 69.9583 148.759 64.0336C148.759 63.8128 148.591 63.4875 148.881 63.3888C149.2 63.2784 149.484 63.4817 149.705 63.7315C150.922 65.1139 152.123 66.5138 153.358 67.8788C156.17 70.9922 158.994 74.0998 161.835 77.1783C162.34 77.7243 162.607 78.4795 163.343 78.8744Z" fill="#68B236"/>
<path id="Vector_12" d="M85.2977 2.0449e-05C85.6224 0.168469 85.7268 0.464706 85.8195 0.760942C87.5997 6.21518 89.3799 11.6752 91.1659 17.1295C91.2993 17.5419 91.508 17.9311 91.6472 18.3377C91.7864 18.7384 91.7806 19.0173 91.1891 18.9766C90.1975 18.9127 89.2002 18.872 88.2086 18.9359C87.4374 18.9882 87.217 18.5758 87.0373 17.9659C86.5618 16.3744 86.0515 14.7886 85.5528 13.1971C85.3151 13.2029 85.3093 13.4062 85.2745 13.5456C84.8222 15.1604 84.2017 16.7345 83.8596 18.3783C83.7668 18.814 83.4885 18.9301 83.1348 18.9301C81.9924 18.9301 80.8559 18.9127 79.7135 18.9011C79.0699 18.8953 79.3366 18.4306 79.412 18.175C79.6961 17.2282 80.0499 16.2989 80.3572 15.3521C81.9866 10.2986 83.8016 5.29743 85.2165 0.174277C85.2339 0.110383 85.2745 0.0522975 85.3151 -0.0115967L85.2977 2.0449e-05Z" fill="#67656B"/>
<path id="Vector_13" d="M75.3648 44.2554C76.8724 43.146 78.3395 42.1005 79.766 41.0084C80.1255 40.7354 80.3516 40.7354 80.6938 41.0084C81.494 41.6358 82.2826 42.2747 83.164 42.7917C83.6163 43.0531 83.8308 43.3319 83.1988 43.7094C81.6273 44.6562 80.1893 45.8005 78.699 46.8577C77.4697 47.729 76.2868 48.7048 75.0401 49.547C73.399 50.6565 71.9088 51.9634 70.2098 53.0031C69.5023 53.4388 68.7891 53.9732 68.1802 54.5889C68.0294 54.7399 67.8265 54.9548 67.6177 54.8328C67.3626 54.6818 67.5772 54.4378 67.6467 54.252C68.8993 50.8307 69.9662 47.3456 71.0738 43.8779C71.8276 41.508 72.7148 39.1846 73.3236 36.7682C73.5498 35.8795 73.5672 35.8911 74.292 36.4022C75.0632 36.9483 75.8113 37.5291 76.6173 38.0112C77.1566 38.3307 77.2088 38.685 77.0174 39.2136C76.4549 40.7761 75.9099 42.3502 75.3648 43.9243C75.3358 44.0057 75.3648 44.0986 75.3648 44.2554Z" fill="#67656B"/>
<path id="Vector_14" d="M20.3146 74.158C21.5382 75.6508 22.7965 77.1262 23.9852 78.6538C24.9826 79.9375 26.0263 81.1747 27.0759 82.4178C27.2325 82.5978 27.5398 82.8302 27.4064 83.0857C27.2789 83.3355 26.9251 83.2019 26.67 83.2484C25.5045 83.4575 24.7854 82.9463 24.0838 82.0053C22.147 79.4031 20.0827 76.888 18.0764 74.338C17.885 74.0941 17.6705 73.9373 17.3631 73.8966C17.0326 73.8501 16.8586 73.9431 16.8702 74.3148C16.9398 77.0797 16.7601 79.8446 16.963 82.6094C16.9978 83.1032 16.8818 83.2426 16.4005 83.2426C14.9567 83.2542 14.9625 83.2716 14.9567 81.8543C14.9393 76.6382 14.9219 71.4221 14.9045 66.2061C14.9045 65.5729 14.8697 64.9456 14.8465 64.3125C14.8349 64.0743 14.8465 63.8478 15.1596 63.8536C17.4327 63.8768 19.7348 63.5457 21.9499 64.2544C24.6173 65.1024 25.632 66.7753 25.4291 69.7841C25.2725 72.0727 23.6025 73.7398 21.312 73.9024C20.8597 73.9334 20.5273 74.0186 20.3146 74.158ZM18.8012 65.5555C18.3721 65.5381 18.0242 65.5497 17.6936 65.4974C17.0442 65.3987 16.8528 65.6659 16.8644 66.299C16.905 67.8499 16.8702 69.4066 16.8992 70.9575C16.9108 71.4802 16.6847 72.1366 17.0442 72.4851C17.2645 72.7 17.9082 72.4561 18.3605 72.4503C19.4796 72.4386 20.593 72.3864 21.6599 72.0146C22.2746 71.7997 22.8545 71.4454 23.0226 70.8064C23.3474 69.5692 23.4227 68.3146 22.8197 67.1122C22.5471 66.572 22.147 66.1944 21.5672 65.9679C20.6394 65.6136 19.6826 65.5381 18.8012 65.5439V65.5555Z" fill="#68B236"/>
<path id="Vector_15" d="M0.591736 73.5539C0.591736 70.667 0.591736 67.7801 0.591736 64.8933C0.591736 63.8652 0.591736 63.8652 1.60071 63.871C3.3693 63.8826 5.1379 63.7838 6.9065 63.9755C9.82323 64.295 11.3773 66.026 11.5049 68.9709C11.586 70.8819 11.1395 72.4967 9.48111 73.5771C8.35037 74.3148 7.00508 74.3612 5.71197 74.4774C4.84217 74.5587 3.96657 74.5587 3.09677 74.5645C2.67926 74.5645 2.5169 74.6633 2.5169 75.1454C2.5169 77.5734 2.5053 79.9956 2.58068 82.4235C2.58648 82.6849 2.77204 83.1147 2.38933 83.1786C1.85585 83.2658 1.24119 83.411 0.771495 83.1089C0.510555 82.9463 0.632327 82.4293 0.632327 82.0692C0.632327 80.6403 0.632327 79.2056 0.638126 77.7767C0.638126 76.371 0.638126 74.9595 0.638126 73.5539C0.62073 73.5539 0.603334 73.5539 0.585938 73.5539H0.591736ZM2.53429 69.2439C2.53429 69.2439 2.56909 69.2439 2.58648 69.2439C2.58648 70.3591 2.58648 71.4744 2.58648 72.5896C2.58648 72.7987 2.53429 73.0369 2.89961 73.002C4.10574 72.8917 5.31186 72.8278 6.51219 72.6884C7.20223 72.6071 7.88648 72.4618 8.46054 71.9797C9.50431 71.1026 9.46372 69.9409 9.33615 68.7734C9.15639 67.0715 8.25759 66.1015 6.60497 65.7297C5.38724 65.4567 4.14633 65.5903 2.91701 65.5206C2.5111 65.4974 2.5227 65.7471 2.5285 66.0434C2.54009 67.1122 2.5285 68.1751 2.5285 69.2439H2.53429Z" fill="#68B236"/>
<path id="Vector_16" d="M174.869 63.4063C176.446 63.4876 177.919 63.8593 178.98 65.1605C179.212 65.4451 179.664 65.7878 179.27 66.1944C178.673 66.8101 177.96 66.8449 177.565 66.3048C176.382 64.6667 173.402 64.8178 172.306 66.0492C171.419 67.0482 171.274 68.3319 172.022 69.4298C172.613 70.2952 173.431 70.8877 174.324 71.3872C175.924 72.2818 177.652 72.9614 179.027 74.2509C179.676 74.8608 180.082 75.581 180.209 76.4349C180.407 77.7592 180.418 79.0778 179.96 80.3789C179.566 81.4883 178.887 82.3596 177.838 82.8475C175.437 83.9628 173.037 84.1196 170.717 82.5978C169.911 82.0692 169.354 81.3083 168.885 80.4718C168.514 79.8097 168.885 79.5309 169.401 79.3217C169.882 79.1243 170.392 78.8222 170.694 79.6238C171.384 81.4593 172.961 81.9066 174.678 81.9646C176.429 82.0227 177.728 81.1456 178.325 79.6006C178.824 78.2994 178.795 76.1793 177.061 75.0699C176.458 74.6807 175.814 74.3554 175.199 74.0011C173.46 73.0078 171.5 72.2934 170.265 70.5799C168.74 68.4597 169.395 65.5148 171.668 64.2253C172.66 63.6619 173.715 63.3482 174.875 63.4063H174.869Z" fill="#68B236"/>
<path id="Vector_17" d="M106.228 74.4135C106.228 71.6951 106.21 68.9767 106.245 66.2583C106.245 65.8111 106.147 65.6542 105.712 65.6542C104.21 65.6542 102.708 65.6136 101.206 65.6426C100.673 65.6542 100.406 65.4974 100.481 64.963C100.545 64.5041 100.249 63.8303 101.16 63.8303C105.161 63.842 109.162 63.8478 113.163 63.8129C114.091 63.8071 113.882 64.388 113.934 64.9282C113.998 65.5903 113.697 65.6716 113.128 65.6542C111.673 65.6136 110.217 65.6542 108.768 65.631C108.281 65.6194 108.124 65.7878 108.147 66.2641C108.356 71.1666 108.182 76.069 108.217 80.9656C108.217 81.378 108.246 81.7904 108.275 82.2028C108.333 83.0102 108.217 83.1612 107.399 83.2368C106.28 83.3413 106.239 83.3006 106.239 82.2086C106.239 79.6122 106.239 77.0158 106.239 74.4193L106.228 74.4135Z" fill="#68B236"/>
<path id="Vector_18" d="M116.735 73.4203C116.735 70.4347 116.735 67.4491 116.735 64.4635C116.735 64.0511 116.689 63.627 117.332 63.9465C117.576 64.0685 117.785 63.8187 118.017 63.7781C118.718 63.6561 118.886 63.7897 118.886 64.5041C118.886 67.1238 118.852 69.7493 118.881 72.3689C118.915 75.8134 118.724 79.2579 118.915 82.7024C118.939 83.0857 118.811 83.2367 118.434 83.2251C116.613 83.167 116.851 83.6201 116.851 81.7149C116.851 78.95 116.851 76.1793 116.851 73.4145C116.816 73.4145 116.776 73.4145 116.741 73.4145L116.735 73.4203Z" fill="#68B236"/>
</g>
<defs>
<clipPath id="clip0_523_1850">
<rect width="181" height="94" fill="white"/>
</clipPath>
</defs>
</svg>
