<svg width="14" height="16" viewBox="0 0 14 16" fill="none" xmlns="http://www.w3.org/2000/svg">
<path id="Union" fill-rule="evenodd" clip-rule="evenodd" d="M13.2333 3.95425C13.4287 3.7542 13.5384 3.48289 13.5384 3.2V2.13333C13.5384 1.85044 13.4287 1.57913 13.2333 1.37909C13.0381 1.17905 12.7732 1.06667 12.497 1.06667H8.85203C8.85203 0.783769 8.74231 0.512458 8.54701 0.31242C8.35169 0.112381 8.08681 0 7.81061 0H5.72779C5.45158 0 5.18669 0.112381 4.99139 0.31242C4.79609 0.512458 4.68637 0.783769 4.68637 1.06667H1.04142C0.765214 1.06667 0.500326 1.17905 0.305024 1.37909C0.10972 1.57913 0 1.85044 0 2.13333V3.2C0 3.48289 0.10972 3.7542 0.305024 3.95425C0.500326 4.15429 0.765214 4.26667 1.04142 4.26667H1.56212V13.8667C1.56212 14.4325 1.78156 14.9751 2.17217 15.3751C2.56277 15.7753 3.09255 16 3.64495 16H9.89344C10.4458 16 10.9756 15.7753 11.3662 15.3751C11.7568 14.9751 11.9763 14.4325 11.9763 13.8667V4.26667H12.497C12.7732 4.26667 13.0381 4.15429 13.2333 3.95425ZM2.60354 4.3296L2.72642 4.26667H10.812L10.9349 4.3296V13.8667C10.9349 14.1495 10.8251 14.4209 10.6298 14.6209C10.4345 14.8209 10.1696 14.9333 9.89344 14.9333H3.64495C3.36875 14.9333 3.10386 14.8209 2.90856 14.6209C2.71326 14.4209 2.60354 14.1495 2.60354 13.8667V4.3296ZM1.04142 2.13333V3.2H12.497V2.13333H1.04142ZM4.53386 6.02288C4.4362 5.92286 4.30376 5.86667 4.16566 5.86667C4.02756 5.86667 3.89512 5.92286 3.79746 6.02288C3.69981 6.12289 3.64495 6.25855 3.64495 6.4V12.8C3.64495 12.9414 3.69981 13.077 3.79746 13.1771C3.89512 13.2772 4.02756 13.3333 4.16566 13.3333C4.30376 13.3333 4.4362 13.2772 4.53386 13.1771C4.63151 13.077 4.68637 12.9414 4.68637 12.8V6.4C4.68637 6.25855 4.63151 6.12289 4.53386 6.02288ZM7.1374 6.02288C7.03974 5.92286 6.9073 5.86667 6.76919 5.86667C6.6311 5.86667 6.49866 5.92286 6.401 6.02288C6.30334 6.12289 6.24849 6.25855 6.24849 6.4V12.8C6.24849 12.9414 6.30334 13.077 6.401 13.1771C6.49866 13.2772 6.6311 13.3333 6.76919 13.3333C6.9073 13.3333 7.03974 13.2772 7.1374 13.1771C7.23504 13.077 7.28991 12.9414 7.28991 12.8V6.4C7.28991 6.25855 7.23504 6.12289 7.1374 6.02288ZM9.74093 6.02288C9.83858 6.12289 9.89344 6.25855 9.89344 6.4V12.8C9.89344 12.9414 9.83858 13.077 9.74093 13.1771C9.64328 13.2772 9.51084 13.3333 9.37273 13.3333C9.23463 13.3333 9.10219 13.2772 9.00454 13.1771C8.90688 13.077 8.85203 12.9414 8.85203 12.8V6.4C8.85203 6.25855 8.90688 6.12289 9.00454 6.02288C9.10219 5.92286 9.23463 5.86667 9.37273 5.86667C9.51084 5.86667 9.64328 5.92286 9.74093 6.02288Z" fill="#333333"/>
</svg>
