<svg width="10" height="10" viewBox="0 0 10 10" fill="none" xmlns="http://www.w3.org/2000/svg">
<path id="Vector" d="M0.247936 0.243962C0.170339 0.321362 0.108774 0.413311 0.0667682 0.514542C0.0247622 0.615772 0.00314062 0.724296 0.00314062 0.833896C0.00314062 0.943496 0.0247622 1.05202 0.0667682 1.15325C0.108774 1.25448 0.170339 1.34643 0.247936 1.42383L3.82254 5.0001L0.244603 8.57636C0.0881428 8.7326 0.000156471 8.94459 2.08211e-07 9.16571C-7.71653e-05 9.27519 0.0214108 9.38362 0.0632368 9.4848C0.105063 9.58597 0.166408 9.67793 0.243769 9.7554C0.321131 9.83287 0.412995 9.89434 0.514115 9.93631C0.615235 9.97828 0.723631 9.99992 0.833115 10C1.05423 10.0002 1.26634 9.91247 1.4228 9.75623L5.00074 6.1783L8.577 9.75623C8.73346 9.91247 8.94558 10.0002 9.16669 10C9.38781 9.99984 9.5998 9.91186 9.75604 9.7554C9.91228 9.59894 9.99996 9.38682 9.99981 9.16571C9.99965 8.94459 9.91167 8.7326 9.75521 8.57636L6.18061 5.0001L9.75687 1.42383C9.91333 1.26759 10.0013 1.0556 10.0015 0.834484C10.0016 0.613373 9.91395 0.401255 9.75771 0.244795C9.60147 0.0883349 9.38947 0.000348566 9.16836 0.000192303C8.94725 3.604e-05 8.73513 0.0877223 8.57867 0.243962L5.0024 3.82189L1.42447 0.243962C1.26821 0.0877531 1.05632 0 0.83537 0C0.614425 0 0.402525 0.0877531 0.246269 0.243962H0.247936Z" fill="#333333"/>
</svg>
