<svg width="58" height="55" viewBox="0 0 58 55" fill="none" xmlns="http://www.w3.org/2000/svg">
<g id="Group 37885">
<g id="Group 37884">
<path id="Vector" d="M46.7042 54.949C46.3679 55.0012 46.136 54.7979 45.9156 54.6295C40.9636 50.7784 35.8201 47.1771 30.7637 43.4654C25.3129 39.4691 19.8505 35.4845 14.3766 31.5056C10.6133 28.7698 6.82672 26.063 3.05758 23.3446C2.17618 22.7056 1.39335 21.9331 0.413376 21.4335C0.198825 21.3232 -0.0621127 21.1373 0.0132702 20.8875C0.10025 20.5913 0.436573 20.7365 0.651124 20.7365C12.2253 20.7307 23.7937 20.7307 35.3678 20.7365C42.4016 20.7365 49.4354 20.7365 56.475 20.7539C56.9215 20.7539 57.6116 20.6552 57.7217 21.0444C57.8319 21.451 57.1129 21.5207 56.7765 21.7646C55.2631 22.8566 53.738 23.9254 52.2246 25.0174C48.4728 27.73 44.7327 30.4484 40.9809 33.161C39.9314 33.922 39.972 33.9684 40.3837 35.1766C41.3405 38.0112 42.2335 40.869 43.1497 43.721C44.147 46.7995 45.127 49.8839 46.1534 52.9566C46.3737 53.613 46.797 54.1997 46.7216 54.949H46.7042ZM39.0384 44.1044C38.2324 42.3734 37.7975 40.7412 37.2756 39.138C36.5797 36.9947 35.8955 34.8513 35.1939 32.708C35.0953 32.4059 35.0895 32.2259 35.4142 31.9993C37.7685 30.3381 40.0995 28.6362 42.4364 26.9517C43.2888 26.336 44.1528 25.7377 45.0806 25.0813C44.7443 24.9129 44.4543 24.9303 44.1702 24.9361C35.7563 25.1162 27.3424 25.0349 18.9286 25.0058C17.0614 25 15.1942 25.0871 13.327 24.9419C13.1299 24.9245 12.8399 24.8432 12.753 25.0929C12.637 25.4124 12.9559 25.4705 13.1531 25.5867C13.5242 25.8016 13.9185 25.9991 14.2664 26.2488C17.8268 28.8104 21.3872 31.3662 24.9244 33.9626C29.2444 37.1283 33.634 40.1894 37.8555 43.4887C38.1454 43.7152 38.4585 43.8836 39.0326 44.0928L39.0384 44.1044Z" fill="#68B236"/>
<path id="Vector_2" d="M28.6004 0.0116171C28.9251 0.180065 29.0295 0.476302 29.1223 0.772539C30.9025 6.22678 32.6827 11.6868 34.4687 17.1411C34.602 17.5535 34.8108 17.9427 34.95 18.3493C35.0891 18.75 35.0833 19.0289 34.4919 18.9882C33.5003 18.9243 32.5029 18.8836 31.5113 18.9475C30.7401 18.9998 30.5198 18.5874 30.34 17.9775C29.8645 16.386 29.3542 14.8002 28.8555 13.2087C28.6178 13.2145 28.612 13.4178 28.5772 13.5572C28.1249 15.172 27.5044 16.7461 27.1623 18.3899C27.0695 18.8256 26.7912 18.9417 26.4375 18.9417C25.2951 18.9417 24.1586 18.9243 23.0163 18.9127C22.3726 18.9069 22.6394 18.4422 22.7147 18.1866C22.9989 17.2398 23.3526 16.3104 23.6599 15.3637C25.2894 10.3102 27.1043 5.30903 28.5192 0.185874C28.5366 0.12198 28.5772 0.0638942 28.6178 0L28.6004 0.0116171Z" fill="#67656B"/>
</g>
<path id="Vector_3" d="M18.6675 44.267C20.1752 43.1576 21.6422 42.112 23.0687 41.02C23.4282 40.747 23.6544 40.747 23.9965 41.02C24.7967 41.6474 25.5853 42.2863 26.4667 42.8033C26.919 43.0647 27.1336 43.3435 26.5015 43.721C24.9301 44.6678 23.492 45.8121 22.0018 46.8693C20.7724 47.7405 19.5895 48.7164 18.3428 49.5586C16.7018 50.6681 15.2115 51.975 13.5125 53.0147C12.805 53.4504 12.0918 53.9848 11.4829 54.6005C11.3322 54.7515 11.1292 54.9664 10.9205 54.8444C10.6653 54.6934 10.8799 54.4494 10.9495 54.2636C12.202 50.8423 13.2689 47.3572 14.3765 43.8895C15.1303 41.5196 16.0175 39.1961 16.6264 36.7798C16.8525 35.8911 16.8699 35.9027 17.5948 36.4138C18.366 36.9599 19.114 37.5407 19.92 38.0228C20.4593 38.3423 20.5115 38.6966 20.3201 39.2252C19.7577 40.7877 19.2126 42.3618 18.6675 43.9359C18.6385 44.0173 18.6675 44.1102 18.6675 44.267Z" fill="#67656B"/>
</g>
</svg>
