<svg width="21" height="14" viewBox="0 0 21 14" fill="none" xmlns="http://www.w3.org/2000/svg">
<g id="Vector">
<path fill-rule="evenodd" clip-rule="evenodd" d="M10.0353 4.00396C10.0963 3.9447 10.1687 3.89768 10.2484 3.8656C10.3282 3.83352 10.4136 3.81701 10.5 3.81701C10.5863 3.81701 10.6717 3.83352 10.7515 3.8656C10.8312 3.89768 10.9036 3.9447 10.9646 4.00396L13.5896 6.54942C13.6506 6.60859 13.699 6.67883 13.732 6.75613C13.765 6.83344 13.782 6.91629 13.782 6.99996C13.782 7.08364 13.765 7.16649 13.732 7.2438C13.699 7.3211 13.6506 7.39134 13.5896 7.45051C13.5286 7.50968 13.4561 7.55661 13.3764 7.58863C13.2967 7.62065 13.2112 7.63713 13.125 7.63713C13.0387 7.63713 12.9532 7.62065 12.8735 7.58863C12.7938 7.55661 12.7213 7.50968 12.6603 7.45051L11.1562 5.99069V10.8181C11.1562 10.9869 11.0871 11.1488 10.964 11.2681C10.8409 11.3875 10.674 11.4545 10.5 11.4545C10.3259 11.4545 10.159 11.3875 10.0359 11.2681C9.91285 11.1488 9.84371 10.9869 9.84371 10.8181V5.99069L8.33958 7.45051C8.21636 7.57 8.04922 7.63713 7.87496 7.63713C7.70069 7.63713 7.53356 7.57 7.41033 7.45051C7.28711 7.33102 7.21788 7.16895 7.21788 6.99996C7.21788 6.83098 7.28711 6.66891 7.41033 6.54942L10.0353 4.00396Z" fill="#333333"/>
<path d="M5.78288 1.708C7.09469 0.611081 8.76782 0.0052672 10.5 0C14.0306 0 16.9614 2.54545 17.2804 5.82782C19.3699 6.11418 21 7.81073 21 9.89291C21 12.1787 19.0339 14 16.6517 14H4.96256C2.24175 14 0 11.9204 0 9.31382C0 7.07 1.66163 5.21182 3.86138 4.74091C4.04906 3.64255 4.7775 2.548 5.78288 1.708ZM6.63994 2.67145C5.64638 3.50255 5.12662 4.50418 5.12662 5.28818V5.85836L4.54256 5.92073C2.709 6.11545 1.3125 7.57527 1.3125 9.31382C1.3125 11.1809 2.92687 12.7273 4.96256 12.7273H16.6517C18.3488 12.7273 19.6875 11.4393 19.6875 9.89291C19.6875 8.34527 18.3488 7.05727 16.6517 7.05727H15.9954V6.42091C15.9968 3.59545 13.5555 1.27273 10.5 1.27273C9.08234 1.27822 7.71335 1.77473 6.63994 2.67273V2.67145Z" fill="#333333"/>
</g>
</svg>
