<svg width="24" height="24" viewBox="0 0 24 24" fill="none" xmlns="http://www.w3.org/2000/svg">
<g id="wallet2" clip-path="url(#clip0_483_1074)">
<path id="Vector" d="M18.204 0.489037C18.5356 0.406092 18.8817 0.399784 19.2161 0.470592C19.5505 0.5414 19.8644 0.687462 20.1339 0.89769C20.4034 1.10792 20.6214 1.37679 20.7715 1.68388C20.9216 1.99098 20.9997 2.32823 21 2.67004V4.50004H21.75C22.3467 4.50004 22.919 4.73709 23.341 5.15905C23.7629 5.581 24 6.1533 24 6.75004V20.25C24 20.8468 23.7629 21.4191 23.341 21.841C22.919 22.263 22.3467 22.5 21.75 22.5H2.25C1.65326 22.5 1.08097 22.263 0.65901 21.841C0.237053 21.4191 1.47137e-07 20.8468 1.47137e-07 20.25V6.75004C-0.000209191 6.17082 0.222964 5.61383 0.623066 5.19501C1.02317 4.77619 1.56938 4.52779 2.148 4.50154L18.204 0.489037ZM8.343 4.50004H19.5V2.67004C19.4997 2.55624 19.4736 2.44399 19.4235 2.3418C19.3735 2.23961 19.3008 2.15015 19.2111 2.08019C19.1213 2.01024 19.0168 1.96162 18.9055 1.93803C18.7941 1.91445 18.6789 1.9165 18.5685 1.94404L8.343 4.50004ZM2.25 6.00004C2.05109 6.00004 1.86032 6.07905 1.71967 6.21971C1.57902 6.36036 1.5 6.55112 1.5 6.75004V20.25C1.5 20.449 1.57902 20.6397 1.71967 20.7804C1.86032 20.921 2.05109 21 2.25 21H21.75C21.9489 21 22.1397 20.921 22.2803 20.7804C22.421 20.6397 22.5 20.449 22.5 20.25V6.75004C22.5 6.55112 22.421 6.36036 22.2803 6.21971C22.1397 6.07905 21.9489 6.00004 21.75 6.00004H2.25Z" fill="#A4A4A4"/>
</g>
<defs>
<clipPath id="clip0_483_1074">
<rect width="24" height="24" fill="white"/>
</clipPath>
</defs>
</svg>
