<svg width="83" height="19" viewBox="0 0 83 19" fill="none" xmlns="http://www.w3.org/2000/svg">
<rect x="0.078125" width="82.9219" height="19" rx="9.5" fill="#CB2D2D"/>
<path d="M22.8562 14H20.8962L16.4582 7.294V14H14.4982V4.214H16.4582L20.8962 10.934V4.214H22.8562V14ZM28.2371 14.126C27.4905 14.126 26.8185 13.9627 26.2211 13.636C25.6238 13.3 25.1525 12.8287 24.8071 12.222C24.4711 11.6153 24.3031 10.9153 24.3031 10.122C24.3031 9.32867 24.4758 8.62867 24.8211 8.022C25.1758 7.41533 25.6565 6.94867 26.2631 6.622C26.8698 6.286 27.5465 6.118 28.2931 6.118C29.0398 6.118 29.7165 6.286 30.3231 6.622C30.9298 6.94867 31.4058 7.41533 31.7511 8.022C32.1058 8.62867 32.2831 9.32867 32.2831 10.122C32.2831 10.9153 32.1011 11.6153 31.7371 12.222C31.3825 12.8287 30.8971 13.3 30.2811 13.636C29.6745 13.9627 28.9931 14.126 28.2371 14.126ZM28.2371 12.418C28.5918 12.418 28.9231 12.334 29.2311 12.166C29.5485 11.9887 29.8005 11.7273 29.9871 11.382C30.1738 11.0367 30.2671 10.6167 30.2671 10.122C30.2671 9.38467 30.0711 8.82 29.6791 8.428C29.2965 8.02667 28.8251 7.826 28.2651 7.826C27.7051 7.826 27.2338 8.02667 26.8511 8.428C26.4778 8.82 26.2911 9.38467 26.2911 10.122C26.2911 10.8593 26.4731 11.4287 26.8371 11.83C27.2105 12.222 27.6771 12.418 28.2371 12.418ZM44.4729 6.244L42.2049 14H40.0909L38.6769 8.582L37.2629 14H35.1349L32.8529 6.244H34.8409L36.2129 12.152L37.6969 6.244H39.7689L41.2249 12.138L42.5969 6.244H44.4729ZM48.9774 14.126C48.2307 14.126 47.5587 13.9627 46.9614 13.636C46.364 13.3 45.8927 12.8287 45.5474 12.222C45.2114 11.6153 45.0434 10.9153 45.0434 10.122C45.0434 9.32867 45.216 8.62867 45.5614 8.022C45.916 7.41533 46.3967 6.94867 47.0034 6.622C47.61 6.286 48.2867 6.118 49.0334 6.118C49.78 6.118 50.4567 6.286 51.0634 6.622C51.67 6.94867 52.1461 7.41533 52.4914 8.022C52.846 8.62867 53.0234 9.32867 53.0234 10.122C53.0234 10.9153 52.8414 11.6153 52.4774 12.222C52.1227 12.8287 51.6374 13.3 51.0214 13.636C50.4147 13.9627 49.7334 14.126 48.9774 14.126ZM48.9774 12.418C49.332 12.418 49.6634 12.334 49.9714 12.166C50.2887 11.9887 50.5407 11.7273 50.7274 11.382C50.914 11.0367 51.0074 10.6167 51.0074 10.122C51.0074 9.38467 50.8114 8.82 50.4194 8.428C50.0367 8.02667 49.5654 7.826 49.0054 7.826C48.4454 7.826 47.974 8.02667 47.5914 8.428C47.218 8.82 47.0314 9.38467 47.0314 10.122C47.0314 10.8593 47.2134 11.4287 47.5774 11.83C47.9507 12.222 48.4174 12.418 48.9774 12.418ZM57.4291 14.126C56.7945 14.126 56.2251 14.014 55.7211 13.79C55.2171 13.5567 54.8158 13.244 54.5171 12.852C54.2278 12.46 54.0691 12.026 54.0411 11.55H56.0151C56.0525 11.8487 56.1971 12.096 56.4491 12.292C56.7105 12.488 57.0325 12.586 57.4151 12.586C57.7885 12.586 58.0778 12.5113 58.2831 12.362C58.4978 12.2127 58.6051 12.0213 58.6051 11.788C58.6051 11.536 58.4745 11.3493 58.2131 11.228C57.9611 11.0973 57.5551 10.9573 56.9951 10.808C56.4165 10.668 55.9405 10.5233 55.5671 10.374C55.2031 10.2247 54.8858 9.996 54.6151 9.688C54.3538 9.38 54.2231 8.96467 54.2231 8.442C54.2231 8.01267 54.3445 7.62067 54.5871 7.266C54.8391 6.91133 55.1938 6.63133 55.6511 6.426C56.1178 6.22067 56.6638 6.118 57.2891 6.118C58.2131 6.118 58.9505 6.35133 59.5011 6.818C60.0518 7.27533 60.3551 7.896 60.4111 8.68H58.5351C58.5071 8.372 58.3765 8.12933 58.1431 7.952C57.9191 7.76533 57.6158 7.672 57.2331 7.672C56.8785 7.672 56.6031 7.73733 56.4071 7.868C56.2205 7.99867 56.1271 8.18067 56.1271 8.414C56.1271 8.67533 56.2578 8.876 56.5191 9.016C56.7805 9.14667 57.1865 9.282 57.7371 9.422C58.2971 9.562 58.7591 9.70667 59.1231 9.856C59.4871 10.0053 59.7998 10.2387 60.0611 10.556C60.3318 10.864 60.4718 11.2747 60.4811 11.788C60.4811 12.236 60.3551 12.6373 60.1031 12.992C59.8605 13.3467 59.5058 13.6267 59.0391 13.832C58.5818 14.028 58.0451 14.126 57.4291 14.126ZM58.8711 4.13L55.6511 5.6V4.2L58.8711 2.534V4.13ZM61.586 10.122C61.586 9.31933 61.7494 8.61933 62.076 8.022C62.4027 7.41533 62.8554 6.94867 63.434 6.622C64.0127 6.286 64.6754 6.118 65.422 6.118C66.3834 6.118 67.1767 6.36067 67.802 6.846C68.4367 7.322 68.8614 7.994 69.076 8.862H66.962C66.85 8.526 66.6587 8.26467 66.388 8.078C66.1267 7.882 65.8 7.784 65.408 7.784C64.848 7.784 64.4047 7.98933 64.078 8.4C63.7514 8.80133 63.588 9.37533 63.588 10.122C63.588 10.8593 63.7514 11.4333 64.078 11.844C64.4047 12.2453 64.848 12.446 65.408 12.446C66.2014 12.446 66.7194 12.0913 66.962 11.382H69.076C68.8614 12.222 68.4367 12.8893 67.802 13.384C67.1674 13.8787 66.374 14.126 65.422 14.126C64.6754 14.126 64.0127 13.9627 63.434 13.636C62.8554 13.3 62.4027 12.8333 62.076 12.236C61.7494 11.6293 61.586 10.9247 61.586 10.122ZM66.85 4.228L63.63 5.698V4.298L66.85 2.632V4.228Z" fill="white"/>
</svg>
