<svg width="96" height="19" viewBox="0 0 96 19" fill="none" xmlns="http://www.w3.org/2000/svg">
<rect x="0.265625" width="95.7344" height="19" rx="9.5" fill="#72BF4C"/>
<path d="M23.0447 7.252C23.0447 7.77467 22.9187 8.26467 22.6667 8.722C22.4241 9.17933 22.0367 9.548 21.5047 9.828C20.9821 10.108 20.3194 10.248 19.5167 10.248H17.8787V14H15.9187V4.228H19.5167C20.2727 4.228 20.9167 4.35867 21.4487 4.62C21.9807 4.88133 22.3774 5.24067 22.6387 5.698C22.9094 6.15533 23.0447 6.67333 23.0447 7.252ZM19.4327 8.666C19.9741 8.666 20.3754 8.54467 20.6367 8.302C20.8981 8.05 21.0287 7.7 21.0287 7.252C21.0287 6.3 20.4967 5.824 19.4327 5.824H17.8787V8.666H19.4327ZM26.3963 7.448C26.6483 7.03733 26.975 6.71533 27.3763 6.482C27.787 6.24867 28.2536 6.132 28.7763 6.132V8.19H28.2583C27.6423 8.19 27.1756 8.33467 26.8583 8.624C26.5503 8.91333 26.3963 9.41733 26.3963 10.136V14H24.4363V6.244H26.3963V7.448ZM33.5405 14.126C32.7938 14.126 32.1218 13.9627 31.5245 13.636C30.9271 13.3 30.4558 12.8287 30.1105 12.222C29.7745 11.6153 29.6065 10.9153 29.6065 10.122C29.6065 9.32867 29.7791 8.62867 30.1245 8.022C30.4791 7.41533 30.9598 6.94867 31.5665 6.622C32.1731 6.286 32.8498 6.118 33.5965 6.118C34.3431 6.118 35.0198 6.286 35.6265 6.622C36.2331 6.94867 36.7091 7.41533 37.0545 8.022C37.4091 8.62867 37.5865 9.32867 37.5865 10.122C37.5865 10.9153 37.4045 11.6153 37.0405 12.222C36.6858 12.8287 36.2005 13.3 35.5845 13.636C34.9778 13.9627 34.2965 14.126 33.5405 14.126ZM33.5405 12.418C33.8951 12.418 34.2265 12.334 34.5345 12.166C34.8518 11.9887 35.1038 11.7273 35.2905 11.382C35.4771 11.0367 35.5705 10.6167 35.5705 10.122C35.5705 9.38467 35.3745 8.82 34.9825 8.428C34.5998 8.02667 34.1285 7.826 33.5685 7.826C33.0085 7.826 32.5371 8.02667 32.1545 8.428C31.7811 8.82 31.5945 9.38467 31.5945 10.122C31.5945 10.8593 31.7765 11.4287 32.1405 11.83C32.5138 12.222 32.9805 12.418 33.5405 12.418ZM48.6562 6.132C49.6082 6.132 50.3735 6.426 50.9522 7.014C51.5402 7.59267 51.8342 8.40467 51.8342 9.45V14H49.8742V9.716C49.8742 9.10933 49.7202 8.64733 49.4122 8.33C49.1042 8.00333 48.6842 7.84 48.1522 7.84C47.6202 7.84 47.1955 8.00333 46.8782 8.33C46.5702 8.64733 46.4162 9.10933 46.4162 9.716V14H44.4562V9.716C44.4562 9.10933 44.3022 8.64733 43.9942 8.33C43.6862 8.00333 43.2662 7.84 42.7342 7.84C42.1929 7.84 41.7635 8.00333 41.4462 8.33C41.1382 8.64733 40.9842 9.10933 40.9842 9.716V14H39.0242V6.244H40.9842V7.182C41.2362 6.85533 41.5582 6.59867 41.9502 6.412C42.3515 6.22533 42.7902 6.132 43.2662 6.132C43.8729 6.132 44.4142 6.26267 44.8902 6.524C45.3662 6.776 45.7349 7.14 45.9962 7.616C46.2482 7.168 46.6122 6.80867 47.0882 6.538C47.5735 6.26733 48.0962 6.132 48.6562 6.132ZM57.1381 14.126C56.3914 14.126 55.7194 13.9627 55.1221 13.636C54.5248 13.3 54.0534 12.8287 53.7081 12.222C53.3721 11.6153 53.2041 10.9153 53.2041 10.122C53.2041 9.32867 53.3768 8.62867 53.7221 8.022C54.0768 7.41533 54.5574 6.94867 55.1641 6.622C55.7708 6.286 56.4474 6.118 57.1941 6.118C57.9408 6.118 58.6174 6.286 59.2241 6.622C59.8308 6.94867 60.3068 7.41533 60.6521 8.022C61.0068 8.62867 61.1841 9.32867 61.1841 10.122C61.1841 10.9153 61.0021 11.6153 60.6381 12.222C60.2834 12.8287 59.7981 13.3 59.1821 13.636C58.5754 13.9627 57.8941 14.126 57.1381 14.126ZM57.1381 12.418C57.4928 12.418 57.8241 12.334 58.1321 12.166C58.4494 11.9887 58.7014 11.7273 58.8881 11.382C59.0748 11.0367 59.1681 10.6167 59.1681 10.122C59.1681 9.38467 58.9721 8.82 58.5801 8.428C58.1974 8.02667 57.7261 7.826 57.1661 7.826C56.6061 7.826 56.1348 8.02667 55.7521 8.428C55.3788 8.82 55.1921 9.38467 55.1921 10.122C55.1921 10.8593 55.3741 11.4287 55.7381 11.83C56.1114 12.222 56.5781 12.418 57.1381 12.418ZM62.1178 10.122C62.1178 9.31933 62.2812 8.61933 62.6078 8.022C62.9345 7.41533 63.3872 6.94867 63.9658 6.622C64.5445 6.286 65.2072 6.118 65.9538 6.118C66.9152 6.118 67.7085 6.36067 68.3338 6.846C68.9685 7.322 69.3932 7.994 69.6078 8.862H67.4938C67.3818 8.526 67.1905 8.26467 66.9198 8.078C66.6585 7.882 66.3318 7.784 65.9398 7.784C65.3798 7.784 64.9365 7.98933 64.6098 8.4C64.2832 8.80133 64.1198 9.37533 64.1198 10.122C64.1198 10.8593 64.2832 11.4333 64.6098 11.844C64.9365 12.2453 65.3798 12.446 65.9398 12.446C66.7332 12.446 67.2512 12.0913 67.4938 11.382H69.6078C69.3932 12.222 68.9685 12.8893 68.3338 13.384C67.6992 13.8787 66.9058 14.126 65.9538 14.126C65.2072 14.126 64.5445 13.9627 63.9658 13.636C63.3872 13.3 62.9345 12.8333 62.6078 12.236C62.2812 11.6293 62.1178 10.9247 62.1178 10.122ZM72.0377 5.32C71.6831 5.32 71.3891 5.21267 71.1557 4.998C70.9317 4.774 70.8197 4.49867 70.8197 4.172C70.8197 3.84533 70.9317 3.57467 71.1557 3.36C71.3891 3.136 71.6831 3.024 72.0377 3.024C72.3831 3.024 72.6677 3.136 72.8917 3.36C73.1157 3.57467 73.2277 3.84533 73.2277 4.172C73.2277 4.49867 73.1157 4.774 72.8917 4.998C72.6677 5.21267 72.3831 5.32 72.0377 5.32ZM73.0037 15.274C73.0037 16.1327 72.7891 16.7487 72.3597 17.122C71.9397 17.5047 71.3331 17.696 70.5397 17.696H69.6717V16.03H70.2317C70.5304 16.03 70.7404 15.9693 70.8617 15.848C70.9831 15.736 71.0437 15.5493 71.0437 15.288V6.244H73.0037V15.274ZM74.4362 10.094C74.4362 9.31 74.5902 8.61467 74.8982 8.008C75.2155 7.40133 75.6402 6.93467 76.1722 6.608C76.7135 6.28133 77.3155 6.118 77.9782 6.118C78.5569 6.118 79.0609 6.23467 79.4902 6.468C79.9289 6.70133 80.2789 6.99533 80.5402 7.35V6.244H82.5142V14H80.5402V12.866C80.2882 13.23 79.9382 13.5333 79.4902 13.776C79.0515 14.0093 78.5429 14.126 77.9642 14.126C77.3109 14.126 76.7135 13.958 76.1722 13.622C75.6402 13.286 75.2155 12.8147 74.8982 12.208C74.5902 11.592 74.4362 10.8873 74.4362 10.094ZM80.5402 10.122C80.5402 9.646 80.4469 9.24 80.2602 8.904C80.0735 8.55867 79.8215 8.29733 79.5042 8.12C79.1869 7.93333 78.8462 7.84 78.4822 7.84C78.1182 7.84 77.7822 7.92867 77.4742 8.106C77.1662 8.28333 76.9142 8.54467 76.7182 8.89C76.5315 9.226 76.4382 9.62733 76.4382 10.094C76.4382 10.5607 76.5315 10.9713 76.7182 11.326C76.9142 11.6713 77.1662 11.9373 77.4742 12.124C77.7915 12.3107 78.1275 12.404 78.4822 12.404C78.8462 12.404 79.1869 12.3153 79.5042 12.138C79.8215 11.9513 80.0735 11.69 80.2602 11.354C80.4469 11.0087 80.5402 10.598 80.5402 10.122Z" fill="white"/>
</svg>
