<svg width="87" height="19" viewBox="0 0 87 19" fill="none" xmlns="http://www.w3.org/2000/svg">
<rect x="0.5625" width="86.4375" height="19" rx="9.5" fill="#4CA3BF"/>
<path d="M19.9396 4.228V5.81H17.3356V14H15.3756V5.81H12.7716V4.228H19.9396ZM24.8137 14.126C24.0671 14.126 23.3951 13.9627 22.7977 13.636C22.2004 13.3 21.7291 12.8287 21.3837 12.222C21.0477 11.6153 20.8797 10.9153 20.8797 10.122C20.8797 9.32867 21.0524 8.62867 21.3977 8.022C21.7524 7.41533 22.2331 6.94867 22.8397 6.622C23.4464 6.286 24.1231 6.118 24.8697 6.118C25.6164 6.118 26.2931 6.286 26.8997 6.622C27.5064 6.94867 27.9824 7.41533 28.3277 8.022C28.6824 8.62867 28.8597 9.32867 28.8597 10.122C28.8597 10.9153 28.6777 11.6153 28.3137 12.222C27.9591 12.8287 27.4737 13.3 26.8577 13.636C26.2511 13.9627 25.5697 14.126 24.8137 14.126ZM24.8137 12.418C25.1684 12.418 25.4997 12.334 25.8077 12.166C26.1251 11.9887 26.3771 11.7273 26.5637 11.382C26.7504 11.0367 26.8437 10.6167 26.8437 10.122C26.8437 9.38467 26.6477 8.82 26.2557 8.428C25.8731 8.02667 25.4017 7.826 24.8417 7.826C24.2817 7.826 23.8104 8.02667 23.4277 8.428C23.0544 8.82 22.8677 9.38467 22.8677 10.122C22.8677 10.8593 23.0497 11.4287 23.4137 11.83C23.7871 12.222 24.2537 12.418 24.8137 12.418ZM32.2575 7.364C32.5095 7.00933 32.8548 6.71533 33.2935 6.482C33.7415 6.23933 34.2501 6.118 34.8195 6.118C35.4821 6.118 36.0795 6.28133 36.6115 6.608C37.1528 6.93467 37.5775 7.40133 37.8855 8.008C38.2028 8.60533 38.3615 9.30067 38.3615 10.094C38.3615 10.8873 38.2028 11.592 37.8855 12.208C37.5775 12.8147 37.1528 13.286 36.6115 13.622C36.0795 13.958 35.4821 14.126 34.8195 14.126C34.2501 14.126 33.7461 14.0093 33.3075 13.776C32.8781 13.5427 32.5281 13.2487 32.2575 12.894V17.696H30.2975V6.244H32.2575V7.364ZM36.3595 10.094C36.3595 9.62733 36.2615 9.226 36.0655 8.89C35.8788 8.54467 35.6268 8.28333 35.3095 8.106C35.0015 7.92867 34.6655 7.84 34.3015 7.84C33.9468 7.84 33.6108 7.93333 33.2935 8.12C32.9855 8.29733 32.7335 8.55867 32.5375 8.904C32.3508 9.24933 32.2575 9.65533 32.2575 10.122C32.2575 10.5887 32.3508 10.9947 32.5375 11.34C32.7335 11.6853 32.9855 11.9513 33.2935 12.138C33.6108 12.3153 33.9468 12.404 34.3015 12.404C34.6655 12.404 35.0015 12.3107 35.3095 12.124C35.6268 11.9373 35.8788 11.6713 36.0655 11.326C36.2615 10.9807 36.3595 10.57 36.3595 10.094ZM42.7537 14.126C42.1191 14.126 41.5497 14.014 41.0457 13.79C40.5417 13.5567 40.1404 13.244 39.8417 12.852C39.5524 12.46 39.3937 12.026 39.3657 11.55H41.3397C41.3771 11.8487 41.5217 12.096 41.7737 12.292C42.0351 12.488 42.3571 12.586 42.7397 12.586C43.1131 12.586 43.4024 12.5113 43.6077 12.362C43.8224 12.2127 43.9297 12.0213 43.9297 11.788C43.9297 11.536 43.7991 11.3493 43.5377 11.228C43.2857 11.0973 42.8797 10.9573 42.3197 10.808C41.7411 10.668 41.2651 10.5233 40.8917 10.374C40.5277 10.2247 40.2104 9.996 39.9397 9.688C39.6784 9.38 39.5477 8.96467 39.5477 8.442C39.5477 8.01267 39.6691 7.62067 39.9117 7.266C40.1637 6.91133 40.5184 6.63133 40.9757 6.426C41.4424 6.22067 41.9884 6.118 42.6137 6.118C43.5377 6.118 44.2751 6.35133 44.8257 6.818C45.3764 7.27533 45.6797 7.896 45.7357 8.68H43.8597C43.8317 8.372 43.7011 8.12933 43.4677 7.952C43.2437 7.76533 42.9404 7.672 42.5577 7.672C42.2031 7.672 41.9277 7.73733 41.7317 7.868C41.5451 7.99867 41.4517 8.18067 41.4517 8.414C41.4517 8.67533 41.5824 8.876 41.8437 9.016C42.1051 9.14667 42.5111 9.282 43.0617 9.422C43.6217 9.562 44.0837 9.70667 44.4477 9.856C44.8117 10.0053 45.1244 10.2387 45.3857 10.556C45.6564 10.864 45.7964 11.2747 45.8057 11.788C45.8057 12.236 45.6797 12.6373 45.4277 12.992C45.1851 13.3467 44.8304 13.6267 44.3637 13.832C43.9064 14.028 43.3697 14.126 42.7537 14.126ZM54.6246 9.954C54.6246 10.234 54.606 10.486 54.5686 10.71H48.8986C48.9453 11.27 49.1413 11.7087 49.4866 12.026C49.832 12.3433 50.2566 12.502 50.7606 12.502C51.4886 12.502 52.0066 12.1893 52.3146 11.564H54.4286C54.2046 12.3107 53.7753 12.9267 53.1406 13.412C52.506 13.888 51.7266 14.126 50.8026 14.126C50.056 14.126 49.384 13.9627 48.7866 13.636C48.1986 13.3 47.7366 12.8287 47.4006 12.222C47.074 11.6153 46.9106 10.9153 46.9106 10.122C46.9106 9.31933 47.074 8.61467 47.4006 8.008C47.7273 7.40133 48.1846 6.93467 48.7726 6.608C49.3606 6.28133 50.0373 6.118 50.8026 6.118C51.54 6.118 52.198 6.27667 52.7766 6.594C53.3646 6.91133 53.8173 7.364 54.1346 7.952C54.4613 8.53067 54.6246 9.198 54.6246 9.954ZM52.5946 9.394C52.5853 8.89 52.4033 8.48867 52.0486 8.19C51.694 7.882 51.26 7.728 50.7466 7.728C50.2613 7.728 49.8506 7.87733 49.5146 8.176C49.188 8.46533 48.9873 8.87133 48.9126 9.394H52.5946ZM58.0153 3.64V14H56.0553V3.64H58.0153ZM61.9118 3.64V14H59.9518V3.64H61.9118ZM71.0582 9.954C71.0582 10.234 71.0396 10.486 71.0022 10.71H65.3322C65.3789 11.27 65.5749 11.7087 65.9202 12.026C66.2656 12.3433 66.6902 12.502 67.1942 12.502C67.9222 12.502 68.4402 12.1893 68.7482 11.564H70.8622C70.6382 12.3107 70.2089 12.9267 69.5742 13.412C68.9396 13.888 68.1602 14.126 67.2362 14.126C66.4896 14.126 65.8176 13.9627 65.2202 13.636C64.6322 13.3 64.1702 12.8287 63.8342 12.222C63.5076 11.6153 63.3442 10.9153 63.3442 10.122C63.3442 9.31933 63.5076 8.61467 63.8342 8.008C64.1609 7.40133 64.6182 6.93467 65.2062 6.608C65.7942 6.28133 66.4709 6.118 67.2362 6.118C67.9736 6.118 68.6316 6.27667 69.2102 6.594C69.7982 6.91133 70.2509 7.364 70.5682 7.952C70.8949 8.53067 71.0582 9.198 71.0582 9.954ZM69.0282 9.394C69.0189 8.89 68.8369 8.48867 68.4822 8.19C68.1276 7.882 67.6936 7.728 67.1802 7.728C66.6949 7.728 66.2842 7.87733 65.9482 8.176C65.6216 8.46533 65.4209 8.87133 65.3462 9.394H69.0282ZM74.4489 7.448C74.7009 7.03733 75.0275 6.71533 75.4289 6.482C75.8395 6.24867 76.3062 6.132 76.8289 6.132V8.19H76.3109C75.6949 8.19 75.2282 8.33467 74.9109 8.624C74.6029 8.91333 74.4489 9.41733 74.4489 10.136V14H72.4889V6.244H74.4489V7.448Z" fill="white"/>
</svg>
