<svg width="30" height="21" viewBox="0 0 30 21" fill="none" xmlns="http://www.w3.org/2000/svg">
<g id="Group 37890">
<path id="path2797" d="M20.832 17.007H11.6367" stroke="white" stroke-width="1.5" stroke-miterlimit="10" stroke-linecap="round" stroke-linejoin="round"/>
<path id="path2809" d="M26.4309 17.007H28.3829V11.0801L23.4943 6.02892H19.4941V6.03614V16.9532" stroke="white" stroke-width="1.5" stroke-miterlimit="10" stroke-linecap="round" stroke-linejoin="round"/>
<path id="path2813" d="M28.3832 11.0801H19.4941" stroke="white" stroke-width="1.5" stroke-miterlimit="10" stroke-linecap="round" stroke-linejoin="round"/>
<path id="path2817" d="M6.99036 14.9457C8.03219 13.9038 9.72123 13.9038 10.7631 14.9457C11.8048 15.9875 11.8048 17.6768 10.7631 18.7186C9.72123 19.7605 8.03219 19.7605 6.99036 18.7186C5.94853 17.6768 5.94853 15.9875 6.99036 14.9457Z" stroke="white" stroke-width="1.5" stroke-miterlimit="10" stroke-linecap="round" stroke-linejoin="round"/>
<path id="path2821" d="M21.8595 14.9457C22.9013 13.9038 24.5903 13.9038 25.6322 14.9457C26.674 15.9875 26.674 17.6768 25.6322 18.7186C24.5903 19.7605 22.9013 19.7605 21.8595 18.7186C20.8177 17.6768 20.8177 15.9875 21.8595 14.9457Z" stroke="white" stroke-width="1.5" stroke-miterlimit="10" stroke-linecap="round" stroke-linejoin="round"/>
<path id="path2825" d="M3.69141 1.50002V16.9976H6.0985" stroke="white" stroke-width="1.5" stroke-miterlimit="10" stroke-linecap="round" stroke-linejoin="round"/>
<path id="path2829" d="M19.5197 6.03607V1.49997H3.69141" stroke="white" stroke-width="1.5" stroke-miterlimit="10" stroke-linecap="round" stroke-linejoin="round"/>
<path id="path2833" d="M9.60425 1.5H3.69141" stroke="white" stroke-width="1.5" stroke-miterlimit="10" stroke-linecap="round" stroke-linejoin="round"/>
<path id="path2837" d="M9.6035 4.90955H2.19336" stroke="white" stroke-width="1.5" stroke-miterlimit="10" stroke-linecap="round" stroke-linejoin="round"/>
<path id="path2841" d="M8.97838 8.31909H1" stroke="white" stroke-width="1.5" stroke-miterlimit="10" stroke-linecap="round" stroke-linejoin="round"/>
</g>
</svg>
