<svg width="20" height="19" viewBox="0 0 20 19" fill="none" xmlns="http://www.w3.org/2000/svg">
<g id="Group 37894">
<g id="Group 37893">
<path id="path372" d="M19 9.5C19 14.4706 14.9705 18.5 10 18.5C5.02935 18.5 1 14.4706 1 9.5C1 4.52935 5.02935 0.499999 10 0.499999C14.9705 0.499999 19 4.52935 19 9.5Z" stroke="#333333" stroke-miterlimit="10" stroke-linecap="round" stroke-linejoin="round"/>
<path id="path376" d="M13.6004 8.30002C13.6004 10.2882 11.9887 11.9 10.0004 11.9C8.01206 11.9 6.40039 10.2882 6.40039 8.30002C6.40039 6.31185 8.01206 4.70006 10.0004 4.70006C11.9887 4.70006 13.6004 6.31185 13.6004 8.30002Z" stroke="#333333" stroke-miterlimit="10" stroke-linecap="round" stroke-linejoin="round"/>
<path id="path380" d="M4.63086 16.7233C4.91878 14.012 7.21293 11.9 10.0005 11.9C12.7881 11.9 15.0822 14.0122 15.3701 16.7234" stroke="#333333" stroke-miterlimit="10" stroke-linecap="round" stroke-linejoin="round"/>
</g>
</g>
</svg>
