<svg width="20" height="19" viewBox="0 0 20 19" fill="none" xmlns="http://www.w3.org/2000/svg">
<g id="Group 37895">
<path id="path1683" d="M9.96266 14.0187C9.96266 16.4936 7.95629 18.5 5.48133 18.5C3.00637 18.5 1 16.4936 1 14.0187C1 11.5437 3.00637 9.53734 5.48133 9.53734C7.95629 9.53734 9.96266 11.5437 9.96266 14.0187Z" stroke="#333333" stroke-miterlimit="10" stroke-linecap="round" stroke-linejoin="round"/>
<path id="path1687" d="M5.16929 14.0186H5.79171C6.13547 14.0186 6.41409 14.2973 6.41409 14.6411V15.2634C6.41409 15.6072 6.13547 15.8859 5.79171 15.8859H5.16929C4.82554 15.8859 4.54688 15.6072 4.54688 15.2634" stroke="#333333" stroke-miterlimit="10" stroke-linecap="round" stroke-linejoin="round"/>
<path id="path1691" d="M5.79168 14.0187H5.16926C4.8255 14.0187 4.54688 13.74 4.54688 13.3963V12.7739C4.54688 12.4301 4.8255 12.1515 5.16926 12.1515H5.79168C6.13543 12.1515 6.41409 12.4301 6.41409 12.7739" stroke="#333333" stroke-miterlimit="10" stroke-linecap="round" stroke-linejoin="round"/>
<path id="path1695" d="M5.48047 12.1515V11.4046" stroke="#333333" stroke-miterlimit="10" stroke-linecap="round" stroke-linejoin="round"/>
<path id="path1699" d="M5.48047 16.6328V15.8859" stroke="#333333" stroke-miterlimit="10" stroke-linecap="round" stroke-linejoin="round"/>
<path id="path1703" d="M5.48047 18.5H17.8041C18.4228 18.5 18.9245 17.9984 18.9245 17.3797V4.23455L15.1902 0.499999H6.6008C5.98208 0.499999 5.48047 1.00161 5.48047 1.62033V9.53734" stroke="#333333" stroke-miterlimit="10" stroke-linecap="round" stroke-linejoin="round"/>
<path id="path1707" d="M15.1914 0.500057V4.2345H18.9258L15.1914 0.500057Z" stroke="#333333" stroke-miterlimit="10" stroke-linecap="round" stroke-linejoin="round"/>
<path id="path1711" d="M8.44531 10.6577H16.3115" stroke="#333333" stroke-miterlimit="10" stroke-linecap="round" stroke-linejoin="round"/>
<path id="path1715" d="M8.0957 7.29663H16.3115" stroke="#333333" stroke-miterlimit="10" stroke-linecap="round" stroke-linejoin="round"/>
<path id="path1719" d="M9.96289 14.0187H16.3114" stroke="#333333" stroke-miterlimit="10" stroke-linecap="round" stroke-linejoin="round"/>
</g>
</svg>
