<svg width="20" height="19" viewBox="0 0 20 19" fill="none" xmlns="http://www.w3.org/2000/svg">
<g id="Group 37888">
<path id="path2049" d="M9.96266 14.0187C9.96266 16.4936 7.95629 18.5 5.48133 18.5C3.00637 18.5 1 16.4936 1 14.0187C1 11.5437 3.00637 9.53734 5.48133 9.53734C7.95629 9.53734 9.96266 11.5437 9.96266 14.0187Z" stroke="#68B236" stroke-miterlimit="10" stroke-linecap="round" stroke-linejoin="round"/>
<path id="path2053" d="M5.48242 18.5H17.8061C18.4248 18.5 18.9264 17.9984 18.9264 17.3797V4.23455L15.1921 0.499999H6.60275C5.98403 0.499999 5.48242 1.00161 5.48242 1.62033V9.53734" stroke="#68B236" stroke-miterlimit="10" stroke-linecap="round" stroke-linejoin="round"/>
<path id="path2057" d="M15.1934 0.500057V4.2345H18.9278L15.1934 0.500057Z" stroke="#68B236" stroke-miterlimit="10" stroke-linecap="round" stroke-linejoin="round"/>
<path id="path2061" d="M8.44531 10.6577H16.3115" stroke="#68B236" stroke-miterlimit="10" stroke-linecap="round" stroke-linejoin="round"/>
<path id="path2065" d="M8.09375 7.29663H16.3095" stroke="#68B236" stroke-miterlimit="10" stroke-linecap="round" stroke-linejoin="round"/>
<path id="path2069" d="M9.96094 14.0187H16.3095" stroke="#68B236" stroke-miterlimit="10" stroke-linecap="round" stroke-linejoin="round"/>
<path id="path2073" d="M5.48242 14.0187V11.778" stroke="#68B236" stroke-miterlimit="10" stroke-linecap="round" stroke-linejoin="round"/>
<path id="path2077" d="M5.48242 14.0187H6.9762" stroke="#68B236" stroke-miterlimit="10" stroke-linecap="round" stroke-linejoin="round"/>
</g>
</svg>
