<svg width="24" height="25" viewBox="0 0 24 25" fill="none" xmlns="http://www.w3.org/2000/svg">
<g id="layers-half" clip-path="url(#clip0_166_2317)">
<path id="Vector" d="M12.3531 2.83837C12.2446 2.78059 12.1235 2.75037 12.0006 2.75037C11.8776 2.75037 11.7566 2.78059 11.6481 2.83837L0.398063 8.83837C0.278254 8.90238 0.17808 8.99773 0.108236 9.11423C0.0383916 9.23074 0.0015 9.36403 0.0015 9.49987C0.0015 9.6357 0.0383916 9.76899 0.108236 9.8855C0.17808 10.002 0.278254 10.0974 0.398063 10.1614L4.78256 12.4999L0.396563 14.8384C0.276754 14.9024 0.17658 14.9977 0.106736 15.1142C0.0368916 15.2307 0 15.364 0 15.4999C0 15.6357 0.0368916 15.769 0.106736 15.8855C0.17658 16.002 0.276754 16.0974 0.396563 16.1614L11.6466 22.1614C11.7551 22.2191 11.8761 22.2494 11.9991 22.2494C12.122 22.2494 12.2431 22.2191 12.3516 22.1614L23.6016 16.1614C23.7214 16.0974 23.8215 16.002 23.8914 15.8855C23.9612 15.769 23.9981 15.6357 23.9981 15.4999C23.9981 15.364 23.9612 15.2307 23.8914 15.1142C23.8215 14.9977 23.7214 14.9024 23.6016 14.8384L19.2201 12.4999L23.6031 10.1614C23.7229 10.0974 23.823 10.002 23.8929 9.8855C23.9627 9.76899 23.9996 9.6357 23.9996 9.49987C23.9996 9.36403 23.9627 9.23074 23.8929 9.11423C23.823 8.99773 23.7229 8.90238 23.6031 8.83837L12.3531 2.83837ZM12.0006 14.6494L2.34356 9.49987L12.0006 4.35037L21.6576 9.49987L12.0006 14.6494Z" fill="#68B236"/>
</g>
<defs>
<clipPath id="clip0_166_2317">
<rect width="24" height="24" fill="white" transform="translate(0 0.5)"/>
</clipPath>
</defs>
</svg>
