<svg width="24" height="21" viewBox="0 0 24 21" fill="none" xmlns="http://www.w3.org/2000/svg">
<g id="Group 37785">
<path id="Vector" d="M19.4305 20.4987C19.2965 20.5178 19.2041 20.4436 19.1163 20.3822C17.1435 18.9771 15.0944 17.6632 13.08 16.3091C10.9085 14.8511 8.73238 13.3973 6.55164 11.9456C5.05238 10.9475 3.54388 9.95995 2.04231 8.96817C1.69118 8.73505 1.37931 8.4532 0.988902 8.27095C0.903428 8.23069 0.799474 8.16287 0.829505 8.07175C0.864157 7.96367 0.998143 8.01665 1.08362 8.01665C5.69459 8.01453 10.3033 8.01453 14.9142 8.01665C17.7164 8.01665 20.5185 8.01665 23.323 8.023C23.5009 8.023 23.7758 7.98698 23.8197 8.12896C23.8636 8.27731 23.5771 8.30274 23.4431 8.39174C22.8402 8.79015 22.2326 9.18009 21.6297 9.5785C20.1351 10.5682 18.6451 11.5599 17.1504 12.5496C16.7323 12.8272 16.7485 12.8442 16.9125 13.285C17.2936 14.3191 17.6494 15.3618 18.0144 16.4023C18.4117 17.5255 18.8021 18.6508 19.211 19.7718C19.2988 20.0113 19.4675 20.2253 19.4374 20.4987H19.4305ZM16.3765 16.5422C16.0554 15.9107 15.8822 15.3152 15.6743 14.7303C15.397 13.9483 15.1244 13.1663 14.8449 12.3843C14.8057 12.2741 14.8033 12.2084 14.9327 12.1258C15.8706 11.5197 16.7993 10.8988 17.7302 10.2842C18.0698 10.0596 18.414 9.84128 18.7837 9.60181C18.6497 9.54035 18.5342 9.54671 18.421 9.54883C15.069 9.61452 11.717 9.58485 8.36507 9.57426C7.62122 9.57214 6.87737 9.60393 6.13351 9.55095C6.05497 9.54459 5.93946 9.51492 5.90481 9.60605C5.85861 9.7226 5.98566 9.74379 6.06421 9.78618C6.21205 9.86459 6.36914 9.93664 6.50775 10.0278C7.92615 10.9623 9.34456 11.8948 10.7537 12.8421C12.4748 13.997 14.2235 15.1138 15.9053 16.3175C16.0208 16.4002 16.1455 16.4617 16.3742 16.5379L16.3765 16.5422Z" fill="#E84848"/>
<path id="Vector_2" d="M12.2164 0.455288C12.3458 0.516745 12.3873 0.624824 12.4243 0.732903C13.1335 2.72283 13.8427 4.71488 14.5542 6.7048C14.6074 6.85527 14.6905 6.99725 14.746 7.1456C14.8014 7.29182 14.7991 7.39354 14.5635 7.37871C14.1684 7.3554 13.7711 7.34056 13.3761 7.36387C13.0688 7.38295 12.981 7.23248 12.9094 7.00997C12.72 6.42931 12.5167 5.85077 12.318 5.27011C12.2233 5.27223 12.221 5.3464 12.2072 5.39726C12.027 5.9864 11.7798 6.5607 11.6435 7.16043C11.6065 7.31937 11.4956 7.36176 11.3547 7.36176C10.8996 7.36176 10.4469 7.3554 9.99177 7.35116C9.73534 7.34904 9.84161 7.1795 9.87164 7.08626C9.98483 6.74083 10.1258 6.40176 10.2482 6.05633C10.8973 4.21263 11.6204 2.388 12.1841 0.518864C12.191 0.495553 12.2072 0.474361 12.2233 0.45105L12.2164 0.455288Z" fill="#E84848"/>
<path id="Vector_3" d="M8.25977 16.6014C8.86039 16.1967 9.44485 15.8152 10.0131 15.4168C10.1564 15.3172 10.2465 15.3172 10.3828 15.4168C10.7015 15.6457 11.0157 15.8788 11.3669 16.0674C11.547 16.1628 11.6325 16.2645 11.3807 16.4022C10.7547 16.7477 10.1818 17.1651 9.58808 17.5508C9.09833 17.8687 8.62707 18.2247 8.1304 18.532C7.47664 18.9368 6.88294 19.4136 6.20608 19.7929C5.92425 19.9519 5.6401 20.1468 5.39754 20.3715C5.33748 20.4266 5.25663 20.505 5.17346 20.4605C5.07182 20.4054 5.15729 20.3164 5.18501 20.2486C5.684 19.0004 6.10906 17.7288 6.55029 16.4637C6.8506 15.599 7.20405 14.7514 7.44661 13.8698C7.5367 13.5455 7.54363 13.5498 7.83239 13.7363C8.13964 13.9355 8.43764 14.1474 8.75875 14.3233C8.97359 14.4398 8.99438 14.5691 8.91815 14.762C8.69407 15.332 8.47692 15.9063 8.25977 16.4806C8.24822 16.5103 8.25977 16.5442 8.25977 16.6014Z" fill="#E84848"/>
</g>
</svg>
