<svg width="25" height="21" viewBox="0 0 25 21" fill="none" xmlns="http://www.w3.org/2000/svg">
<g id="Group 37786">
<path id="Vector" d="M7.6077 1.9895C7.73223 2.00682 7.79731 2.10983 7.86128 2.19829C9.29323 4.21135 10.8152 6.15055 12.2965 8.12211C13.8937 10.2456 15.4961 12.3659 17.1031 14.4853C18.2079 15.9426 19.3235 17.3913 20.4319 18.8426C20.6908 19.1832 20.903 19.5637 21.2092 19.8622C21.2761 19.9279 21.3531 20.0275 21.3045 20.1142C21.2477 20.2173 21.1403 20.1248 21.0638 20.1011C16.9342 18.8229 12.8072 17.5431 8.67861 16.2604C6.1693 15.4823 3.66 14.7041 1.15014 13.9187C0.990849 13.8693 0.736092 13.8306 0.73061 13.6703C0.726643 13.5034 0.989216 13.5564 1.1304 13.5008C1.76523 13.2528 2.40218 13.0149 3.03701 12.7668C4.61119 12.1498 6.18174 11.5293 7.75593 10.9123C8.19649 10.7389 8.18605 10.7167 8.14417 10.2115C8.04919 9.02719 7.97898 7.84109 7.89999 6.65463C7.81173 5.373 7.73019 4.09109 7.63108 2.80846C7.60951 2.53436 7.50948 2.26432 7.6015 1.98757L7.6077 1.9895ZM9.4 6.96359C9.53711 7.71134 9.55041 8.38045 9.59727 9.04814C9.65923 9.94061 9.71706 10.8318 9.78109 11.7249C9.79001 11.8507 9.77643 11.9199 9.64089 11.9701C8.65663 12.3417 7.67711 12.7314 6.69704 13.1137C6.33943 13.2537 5.9792 13.3858 5.59117 13.5328C5.69652 13.6341 5.80147 13.6596 5.90334 13.6888C8.92063 14.5511 11.9152 15.5129 14.9143 16.4547C15.58 16.6635 16.2536 16.8369 16.9071 17.0987C16.976 17.1272 17.0723 17.1902 17.1251 17.1048C17.1942 16.9961 17.0855 16.9387 17.0252 16.8727C16.9115 16.7498 16.788 16.6311 16.6856 16.4976C15.638 15.1291 14.59 13.7628 13.5538 12.3836C12.2877 10.7013 10.9878 9.051 9.7685 7.32872C9.68476 7.21046 9.58769 7.11173 9.40106 6.96866L9.4 6.96359Z" fill="#68B236"/>
</g>
</svg>
