<svg width="19" height="17" viewBox="0 0 19 17" fill="none" xmlns="http://www.w3.org/2000/svg">
<path id="Vector" d="M6.5246 0.0806059C6.58846 0.118846 6.64416 0.169292 6.68852 0.229062C6.73288 0.288833 6.76502 0.356757 6.78313 0.428954C6.80123 0.501152 6.80493 0.576208 6.79402 0.649836C6.78311 0.723464 6.7578 0.794222 6.71953 0.858066L3.83407 5.66676H14.2993L11.4127 0.858066C11.3354 0.729119 11.3126 0.574767 11.3491 0.428964C11.3857 0.283162 11.4787 0.157854 11.6076 0.0806059C11.7365 0.00335782 11.8909 -0.0195023 12.0367 0.0170545C12.1825 0.0536113 12.3078 0.146591 12.3851 0.275538L15.6207 5.66676H17.5667C17.717 5.66676 17.8611 5.72646 17.9674 5.83273C18.0736 5.939 18.1333 6.08313 18.1333 6.23342V7.36675C18.1333 7.51703 18.0736 7.66117 17.9674 7.76744C17.8611 7.87371 17.717 7.93341 17.5667 7.93341H0.566667C0.416377 7.93341 0.272243 7.87371 0.165973 7.76744C0.0597022 7.66117 0 7.51703 0 7.36675V6.23342C0 6.08313 0.0597022 5.939 0.165973 5.83273C0.272243 5.72646 0.416377 5.66676 0.566667 5.66676H2.5126L5.746 0.275538C5.78424 0.211679 5.83469 0.15598 5.89446 0.111622C5.95423 0.0672639 6.02215 0.0351155 6.09435 0.0170134C6.16655 -0.00108855 6.24161 -0.00478948 6.31524 0.00612187C6.38886 0.0170332 6.45962 0.0423431 6.52347 0.0806059H6.5246ZM3.84653 15.8667L2.1692 9.06673H1.06987L2.7982 16.3495C2.84296 16.5349 2.94877 16.6998 3.09863 16.8178C3.24848 16.9358 3.43367 17 3.6244 17H14.5112C14.7021 17.0002 14.8876 16.9362 15.0377 16.8182C15.1877 16.7002 15.2937 16.5351 15.3385 16.3495L17.0635 9.06673H15.9619L14.2857 15.8667H3.84653Z" fill="white"/>
</svg>
