<svg width="20" height="20" viewBox="0 0 20 20" fill="none" xmlns="http://www.w3.org/2000/svg">
<g id="uwga">
<path id="Union" fill-rule="evenodd" clip-rule="evenodd" d="M0 10C0 4.47716 4.47716 0 10 0C15.5229 0 20 4.47716 20 10C20 15.5229 15.5229 20 10 20C4.47716 20 0 15.5229 0 10ZM10 2C5.58172 2 2 5.58172 2 10C2 14.4183 5.58172 18 10 18C14.4183 18 18 14.4183 18 10C18 5.58172 14.4183 2 10 2ZM11 14C11 14.5523 10.5523 15 10 15C9.44772 15 9 14.5523 9 14C9 13.4477 9.44772 13 10 13C10.5523 13 11 13.4477 11 14ZM11 6C11 5.44772 10.5523 5 10 5C9.44771 5 9 5.44772 9 6V10C9 10.5523 9.44771 11 10 11C10.5523 11 11 10.5523 11 10V6Z" fill="#68B236"/>
</g>
</svg>
