<svg width="18" height="17" viewBox="0 0 18 17" fill="none" xmlns="http://www.w3.org/2000/svg">
<path id="Vector" d="M6.47662 0.0806059C6.54001 0.118846 6.5953 0.169292 6.63934 0.229062C6.68337 0.288833 6.71528 0.356757 6.73325 0.428954C6.75122 0.501152 6.75489 0.576208 6.74406 0.649836C6.73323 0.723464 6.70811 0.794222 6.67012 0.858066L3.80587 5.66676H14.1941L11.3287 0.858066C11.2521 0.729119 11.2294 0.574767 11.2657 0.428964C11.302 0.283162 11.3942 0.157854 11.5222 0.0806059C11.6502 0.00335782 11.8035 -0.0195023 11.9482 0.0170545C12.0929 0.0536113 12.2173 0.146591 12.294 0.275538L15.5059 5.66676H17.4375C17.5867 5.66676 17.7298 5.72646 17.8352 5.83273C17.9407 5.939 18 6.08313 18 6.23342V7.36675C18 7.51703 17.9407 7.66117 17.8352 7.76744C17.7298 7.87371 17.5867 7.93341 17.4375 7.93341H0.5625C0.413316 7.93341 0.270242 7.87371 0.164752 7.76744C0.0592632 7.66117 0 7.51703 0 7.36675V6.23342C0 6.08313 0.0592632 5.939 0.164752 5.83273C0.270242 5.72646 0.413316 5.66676 0.5625 5.66676H2.49412L5.70375 0.275538C5.74171 0.211679 5.79178 0.15598 5.85112 0.111622C5.91045 0.0672639 5.97787 0.0351155 6.04954 0.0170134C6.12121 -0.00108855 6.19571 -0.00478948 6.2688 0.00612187C6.34189 0.0170332 6.41212 0.0423431 6.4755 0.0806059H6.47662ZM3.81825 15.8667L2.15325 9.06673H1.062L2.77763 16.3495C2.82205 16.5349 2.92709 16.6998 3.07584 16.8178C3.2246 16.9358 3.40842 17 3.59775 17H14.4045C14.594 17.0002 14.7781 16.9362 14.9271 16.8182C15.0761 16.7002 15.1813 16.5351 15.2257 16.3495L16.938 9.06673H15.8445L14.1806 15.8667H3.81825Z" fill="white"/>
</svg>
