<svg width="40" height="41" viewBox="0 0 40 41" fill="none" xmlns="http://www.w3.org/2000/svg">
<g id="Group 37818">
<path id="Vector 471" d="M11.0625 19.9066L18.6514 27.3085L28.0838 14.117" stroke="#333" stroke-width="2" stroke-linecap="round" stroke-linejoin="round"/>
<path id="Vector" d="M17.6969 2.5931L17.697 2.59305C18.8863 1.13565 21.1136 1.13565 22.303 2.59305L22.303 2.5931C24.4211 5.18826 27.7007 6.54671 31.0334 6.20935C32.9053 6.0199 34.48 7.59473 34.2905 9.4664L34.2905 9.46643C33.9532 12.7992 35.3117 16.0788 37.9069 18.1969L37.9069 18.197C39.3644 19.3863 39.3644 21.6136 37.9069 22.803L37.9069 22.803C35.3117 24.9211 33.9532 28.2007 34.2905 31.5334C34.48 33.4053 32.9053 34.98 31.0334 34.7905C27.7007 34.4532 24.4211 35.8117 22.303 38.4069L22.303 38.4069C21.1136 39.8644 18.8863 39.8644 17.697 38.4069L17.6969 38.4069C15.5788 35.8117 12.2992 34.4532 8.96643 34.7905L8.9664 34.7905C7.09473 34.98 5.51991 33.4053 5.70935 31.5334C6.04671 28.2007 4.68826 24.9211 2.0931 22.803L2.09305 22.803C0.635649 21.6136 0.635649 19.3863 2.09305 18.197L2.0931 18.1969C4.68827 16.0788 6.0467 12.7992 5.70935 9.46642C5.5199 7.59471 7.09471 6.01991 8.96643 6.20935C12.2992 6.54671 15.5788 5.18827 17.6969 2.5931Z" stroke="#333" stroke-width="2"/>
</g>
</svg>
