<svg width="38" height="43" viewBox="0 0 38 43" fill="none" xmlns="http://www.w3.org/2000/svg">
<g id="Group 37837">
<path id="Vector" d="M27.4906 25.9676C31.5373 16.9032 30.3041 7.55481 24.7362 5.08745C19.1682 2.62009 11.374 7.96807 7.32724 17.0325C3.28052 26.0969 4.51372 35.4453 10.0817 37.9126C15.6496 40.38 23.4439 35.032 27.4906 25.9676Z" stroke="#FFFFFF" stroke-width="2" stroke-miterlimit="10"/>
<path id="Vector_2" d="M14.3371 38.3918C11.3084 34.4901 11.1412 27.0275 14.3183 19.7498C17.2972 12.9245 22.3639 8.21633 27 7.39178" stroke="#FFFFFF" stroke-width="2" stroke-miterlimit="10"/>
<path id="Vector_3" d="M30.6375 7.39178C31.0688 7.49082 31.4911 7.63199 31.901 7.81527C37.428 10.2936 38.652 19.6842 34.6357 28.789C30.6194 37.8939 22.8827 43.266 17.3557 40.7877C17.2349 40.7331 17.1163 40.6762 17 40.6158" stroke="#FFFFFF" stroke-width="2" stroke-miterlimit="10"/>
<path id="Vector_4" d="M22.5 4.39178L32 7.89178" stroke="#FFFFFF" stroke-width="2" stroke-miterlimit="10"/>
<path id="Vector_5" d="M9 37.3918L17.5 40.8918" stroke="#FFFFFF" stroke-width="2" stroke-miterlimit="10"/>
</g>
</svg>
