<svg width="11" height="15" viewBox="0 0 11 15" fill="none" xmlns="http://www.w3.org/2000/svg">
<path d="M5.5 15C5.5 15 11 9.66938 11 5.625C11 4.13316 10.4205 2.70242 9.38909 1.64752C8.35764 0.592632 6.95869 0 5.5 0C4.04131 0 2.64236 0.592632 1.61091 1.64752C0.579463 2.70242 2.17362e-08 4.13316 0 5.625C0 9.66938 5.5 15 5.5 15ZM5.5 8.4375C4.77065 8.4375 4.07118 8.14118 3.55546 7.61374C3.03973 7.08629 2.75 6.37092 2.75 5.625C2.75 4.87908 3.03973 4.16371 3.55546 3.63626C4.07118 3.10882 4.77065 2.8125 5.5 2.8125C6.22935 2.8125 6.92882 3.10882 7.44454 3.63626C7.96027 4.16371 8.25 4.87908 8.25 5.625C8.25 6.37092 7.96027 7.08629 7.44454 7.61374C6.92882 8.14118 6.22935 8.4375 5.5 8.4375Z" fill="#333333"/>
</svg>
