<svg width="15" height="15" viewBox="0 0 15 15" fill="none" xmlns="http://www.w3.org/2000/svg">
<path fill-rule="evenodd" clip-rule="evenodd" d="M1.76757 0.478307C1.93161 0.314507 2.12858 0.187442 2.34543 0.10553C2.56228 0.0236186 2.79406 -0.0112683 3.02541 0.00318128C3.25677 0.0176309 3.48241 0.0810871 3.68739 0.189345C3.89236 0.297602 4.07199 0.448189 4.21437 0.631126L5.89713 2.7931C6.20556 3.18968 6.31431 3.70627 6.19244 4.19379L5.67964 6.24701C5.65313 6.35335 5.65456 6.46475 5.6838 6.57038C5.71304 6.676 5.76909 6.77228 5.84651 6.84985L8.14987 9.15339C8.22753 9.23098 8.32396 9.28713 8.42976 9.31637C8.53556 9.34562 8.64713 9.34696 8.7536 9.32027L10.8057 8.80744C11.0463 8.74728 11.2974 8.74261 11.54 8.79378C11.7827 8.84494 12.0105 8.9506 12.2063 9.10276L14.3681 10.7847C15.1453 11.3894 15.2165 12.5379 14.5209 13.2326L13.5516 14.2021C12.8579 14.8958 11.821 15.2005 10.8545 14.8602C8.38066 13.9897 6.13457 12.5734 4.28281 10.7163C2.42595 8.86464 1.00973 6.61871 0.139187 4.14504C-0.200177 3.17937 0.104501 2.14151 0.798229 1.44773L1.76757 0.478307Z" fill="#333333"/>
</svg>
