<svg width="11" height="12" viewBox="0 0 11 12" fill="none" xmlns="http://www.w3.org/2000/svg">
<path id="Vector" d="M4.32129 0C4.21709 0 4.11716 0.0395088 4.04348 0.109835C3.9698 0.180161 3.92841 0.275544 3.92841 0.375C3.92841 0.474456 3.9698 0.569839 4.04348 0.640165C4.11716 0.710491 4.21709 0.75 4.32129 0.75H4.71417V1.5525C3.33788 1.74237 2.08799 2.4227 1.21598 3.45662C0.343976 4.49054 -0.0854413 5.80132 0.0141294 7.12522C0.1137 8.44913 0.73487 9.68791 1.75266 10.5923C2.77045 11.4968 4.10933 11.9997 5.49992 12C6.55433 12 7.58651 11.7106 8.47352 11.1665C9.36053 10.6224 10.065 9.84634 10.503 8.93085C10.941 8.01536 11.0941 6.999 10.944 6.00282C10.7939 5.00663 10.3471 4.07261 9.65657 3.312C9.66002 3.30905 9.66343 3.30605 9.66678 3.303L9.94494 3.0375L10.2223 3.303C10.2586 3.33882 10.3019 3.36738 10.3498 3.38704C10.3978 3.40669 10.4493 3.41704 10.5015 3.41747C10.5537 3.4179 10.6054 3.40841 10.6537 3.38956C10.702 3.3707 10.7458 3.34286 10.7827 3.30765C10.8196 3.27244 10.8488 3.23057 10.8685 3.18448C10.8883 3.1384 10.8982 3.08902 10.8978 3.03922C10.8973 2.98943 10.8865 2.94022 10.8659 2.89447C10.8453 2.84872 10.8154 2.80734 10.7778 2.77275L9.66678 1.7115C9.63054 1.67568 9.58719 1.64712 9.53925 1.62746C9.49132 1.60781 9.43977 1.59746 9.3876 1.59703C9.33544 1.5966 9.2837 1.60609 9.23542 1.62494C9.18714 1.6438 9.14327 1.67164 9.10638 1.70685C9.06949 1.74206 9.04032 1.78393 9.02057 1.83002C9.00081 1.8761 8.99087 1.92548 8.99133 1.97528C8.99178 2.02507 9.00262 2.07428 9.02321 2.12003C9.0438 2.16578 9.07373 2.20716 9.11125 2.24175L9.38941 2.50725L9.11125 2.77275C9.10807 2.77571 9.10493 2.77871 9.10182 2.78175C8.30638 2.12233 7.32861 1.69579 6.28568 1.55325V0.75H6.67855C6.78275 0.75 6.88268 0.710491 6.95636 0.640165C7.03004 0.569839 7.07143 0.474456 7.07143 0.375C7.07143 0.275544 7.03004 0.180161 6.95636 0.109835C6.88268 0.0395088 6.78275 0 6.67855 0H4.32129ZM5.8928 4.2V6.75C5.8928 6.84946 5.85141 6.94484 5.77773 7.01517C5.70405 7.08549 5.60412 7.125 5.49992 7.125H2.74978C2.64558 7.125 2.54565 7.08549 2.47197 7.01517C2.39829 6.94484 2.3569 6.84946 2.3569 6.75C2.3569 6.65054 2.39829 6.55516 2.47197 6.48483C2.54565 6.41451 2.64558 6.375 2.74978 6.375H5.10704V4.2C5.10704 4.10054 5.14844 4.00516 5.22211 3.93483C5.29579 3.86451 5.39572 3.825 5.49992 3.825C5.60412 3.825 5.70405 3.86451 5.77773 3.93483C5.85141 4.00516 5.8928 4.10054 5.8928 4.2Z" fill="#333333"/>
</svg>
