<svg width="7" height="14" viewBox="0 0 7 14" fill="none" xmlns="http://www.w3.org/2000/svg">
<path id="Vector" d="M0.577499 0.68123C0.467499 0.733131 0.367499 0.795415 0.267499 0.888839C0.177499 0.982263 0.1175 1.08607 0.0674995 1.20025C-0.0225005 1.42862 -0.0225005 1.69851 0.0674995 1.93726C0.1175 2.05144 0.1775 2.15525 0.2675 2.24867L4.7575 6.83682L0.2775 11.425C0.1875 11.5184 0.1275 11.6222 0.0774999 11.7364C-0.0125 11.9751 -0.0125 12.245 0.0775 12.4734C0.1275 12.5876 0.1975 12.6914 0.2775 12.7848C0.3675 12.8678 0.4675 12.9405 0.5875 12.9924C0.6975 13.0443 0.8175 13.0651 0.9375 13.0651C1.0575 13.0651 1.1775 13.0443 1.2875 12.9924C1.3975 12.9405 1.4975 12.8782 1.5875 12.7848L6.7375 7.51154C6.8275 7.41812 6.8875 7.31431 6.9375 7.20013C6.9875 7.08594 7.0075 6.96138 7.0075 6.83682C7.0075 6.71225 6.9875 6.58768 6.9375 6.46312C6.8875 6.34894 6.8275 6.24513 6.7375 6.15171L1.5875 0.888839C1.4975 0.805796 1.3975 0.733131 1.2875 0.68123C1.1775 0.639708 1.0575 0.608567 0.937499 0.608567C0.817499 0.608567 0.697499 0.629328 0.577499 0.68123Z" fill="#FFFFFF"/>
</svg>
