<svg xmlns="http://www.w3.org/2000/svg" width="5" height="8" viewBox="0 0 5 8" fill="none">
<path d="M0.385 0.0466661C0.311666 0.0799994 0.245 0.12 0.178333 0.18C0.118333 0.24 0.078333 0.306666 0.0449997 0.38C-0.0150003 0.526666 -0.0150003 0.7 0.0449997 0.853333C0.078333 0.926666 0.118333 0.993333 0.178333 1.05333L3.17167 4L0.185 6.94667C0.125 7.00667 0.085 7.07333 0.0516666 7.14667C-0.00833337 7.3 -0.00833336 7.47333 0.0516666 7.62C0.085 7.69333 0.131667 7.76 0.185 7.82C0.245 7.87333 0.311667 7.92 0.391667 7.95333C0.465 7.98667 0.545 8 0.625 8C0.705 8 0.785 7.98667 0.858333 7.95333C0.931667 7.92 0.998333 7.88 1.05833 7.82L4.49167 4.43333C4.55167 4.37333 4.59167 4.30667 4.625 4.23333C4.65833 4.16 4.67167 4.08 4.67167 4C4.67167 3.92 4.65833 3.84 4.625 3.76C4.59167 3.68667 4.55167 3.62 4.49167 3.56L1.05833 0.18C0.998333 0.126667 0.931666 0.0799994 0.858333 0.0466661C0.785 0.0199995 0.705 -3.08165e-08 0.625 -2.73196e-08C0.545 -2.38227e-08 0.465 0.0133328 0.385 0.0466661Z" fill="#8A8A8A"/>
</svg>