<svg xmlns="http://www.w3.org/2000/svg" width="27" height="25" viewBox="0 0 27 25" fill="none">
<path d="M9.595 0.118538C9.68891 0.174773 9.77082 0.248958 9.83605 0.336856C9.90129 0.424754 9.94856 0.524642 9.97519 0.630815C10.0018 0.736988 10.0072 0.847365 9.9912 0.955642C9.97516 1.06392 9.93794 1.16797 9.88167 1.26186L5.63833 8.33347H21.0283L16.7833 1.26186C16.6697 1.07223 16.6361 0.845245 16.6899 0.63083C16.7436 0.416415 16.8804 0.232138 17.07 0.118538C17.2596 0.00493797 17.4866 -0.0286798 17.701 0.0250802C17.9155 0.0788402 18.0997 0.215574 18.2133 0.405203L22.9717 8.33347H25.8333C26.0543 8.33347 26.2663 8.42127 26.4226 8.57755C26.5789 8.73383 26.6667 8.94579 26.6667 9.1668V10.8335C26.6667 11.0545 26.5789 11.2664 26.4226 11.4227C26.2663 11.579 26.0543 11.6668 25.8333 11.6668H0.833333C0.61232 11.6668 0.400358 11.579 0.244078 11.4227C0.0877974 11.2664 0 11.0545 0 10.8335V9.1668C0 8.94579 0.0877974 8.73383 0.244078 8.57755C0.400358 8.42127 0.61232 8.33347 0.833333 8.33347H3.695L8.45 0.405203C8.50624 0.311293 8.58042 0.229383 8.66832 0.16415C8.75622 0.0989175 8.85611 0.0516404 8.96228 0.0250198C9.06845 -0.00160081 9.17883 -0.00704336 9.28711 0.00900275C9.39539 0.0250489 9.49944 0.0622693 9.59333 0.118538H9.595ZM5.65667 23.3333L3.19 13.3334H1.57333L4.115 24.0433C4.18082 24.316 4.33643 24.5586 4.55681 24.7321C4.77718 24.9056 5.04951 25 5.33 25H21.34C21.6208 25.0004 21.8935 24.9062 22.1142 24.7326C22.3349 24.5591 22.4908 24.3163 22.5567 24.0433L25.0933 13.3334H23.4733L21.0083 23.3333H5.65667Z" fill="#333333"/>
</svg>