<svg width="12" height="12" viewBox="0 0 12 12" fill="none" xmlns="http://www.w3.org/2000/svg">
<path id="Vector" fill-rule="evenodd" clip-rule="evenodd" d="M0 6.00021C1.73895e-08 5.8013 0.0790171 5.61054 0.219669 5.46988C0.360322 5.32923 0.551088 5.25021 0.75 5.25021L9.4395 5.25021L6.219 2.03121C6.14927 1.96148 6.09395 1.8787 6.05621 1.78759C6.01848 1.69648 5.99905 1.59883 5.99905 1.50021C5.99905 1.4016 6.01848 1.30395 6.05621 1.21284C6.09395 1.12173 6.14927 1.03895 6.219 0.969214C6.28873 0.899482 6.37152 0.844168 6.46262 0.806429C6.55373 0.768691 6.65138 0.749268 6.75 0.749268C6.84862 0.749268 6.94627 0.768691 7.03738 0.806429C7.12848 0.844168 7.21127 0.899483 7.281 0.969214L11.781 5.46921C11.8508 5.53888 11.9063 5.62165 11.9441 5.71276C11.9819 5.80388 12.0013 5.90156 12.0013 6.00021C12.0013 6.09887 11.9819 6.19655 11.9441 6.28767C11.9063 6.37878 11.8508 6.46155 11.781 6.53121L7.281 11.0312C7.14017 11.172 6.94916 11.2512 6.75 11.2512C6.55084 11.2512 6.35983 11.172 6.219 11.0312C6.07817 10.8904 5.99905 10.6994 5.99905 10.5002C5.99905 10.3011 6.07817 10.11 6.219 9.96921L9.4395 6.75021L0.75 6.75021C0.551088 6.75021 0.360322 6.6712 0.219669 6.53054C0.079017 6.38989 -1.73895e-08 6.19913 0 6.00021Z" fill="white"/>
</svg>
