<svg width="181" height="94" viewBox="0 0 181 94" fill="none" xmlns="http://www.w3.org/2000/svg">
<g id="Warstwa_1" clip-path="url(#clip0_474_116)">
<path id="Vector" d="M0.127869 94C-0.18526 92.9661 0.0234926 92.7163 1.24701 92.7163C11.1686 92.7163 21.0901 92.7047 31.0174 92.7047C70.5412 92.7047 110.059 92.7047 149.583 92.7047C159.771 92.7047 169.96 92.7105 180.154 92.7163C181.052 92.7163 181.099 92.7918 180.936 94H0.127869Z" fill="#68B236"/>
<path id="Vector_2" d="M125.037 38.8012C125.037 39.2775 125.037 39.7538 125.037 40.2301C125.048 44.8654 125.054 49.5064 125.083 54.1416C125.083 54.6238 124.909 54.6935 124.492 54.6877C122.091 54.6702 119.69 54.6644 117.29 54.6935C116.832 54.6935 116.727 54.5831 116.727 54.13C116.733 43.0589 116.727 31.9878 116.71 20.9167C116.71 20.2777 116.872 20.0454 117.539 20.0628C121.83 20.1732 126.127 19.9757 130.418 20.1441C132.14 20.208 133.857 20.3532 135.509 20.8818C136.866 21.3174 138.206 21.8402 139.313 22.7464C141.725 24.7155 142.618 27.3584 142.444 30.402C142.305 32.8649 141.337 34.985 139.47 36.5765C138.472 37.4304 137.353 38.1855 135.944 38.3946C135.405 38.4759 134.842 38.778 134.28 38.9639C133.926 39.0858 134.094 39.4169 134.292 39.6667C134.813 40.3289 135.364 40.9736 135.834 41.6707C137.301 43.8489 138.675 46.1026 140.212 48.2285C141.494 50.0118 142.618 51.8995 143.941 53.6537C144.028 53.7699 144.103 53.8977 144.161 54.0255C144.248 54.2172 144.503 54.3914 144.381 54.6005C144.259 54.8154 143.981 54.6877 143.772 54.6877C141.105 54.6818 138.438 54.6528 135.77 54.6702C135.19 54.6702 134.86 54.4902 134.552 53.9848C131.781 49.489 128.974 45.0106 126.185 40.5206C125.825 39.9455 125.512 39.3472 125.176 38.7606C125.13 38.7722 125.083 38.7838 125.031 38.7954L125.037 38.8012ZM127.008 25.7378C126.55 25.7378 126.086 25.7668 125.628 25.732C125.141 25.6913 125.019 25.8772 125.025 26.3535C125.054 28.3923 125.048 30.4253 125.025 32.4641C125.019 33.1088 125.101 33.7478 124.921 34.3983C124.828 34.7236 125.095 35.136 125.507 34.9095C125.866 34.7178 126.202 34.7294 126.55 34.7352C128.035 34.7585 129.502 34.6016 130.963 34.3867C132.401 34.1776 133.625 33.5793 134.083 32.0575C134.332 31.2152 134.309 30.344 134.193 29.4669C133.99 27.9044 133.126 26.8995 131.659 26.4464C130.146 25.9759 128.586 25.8017 127.003 25.7436L127.008 25.7378Z" fill="#67656B"/>
<path id="Vector_3" d="M155.573 36.9251C155.573 37.837 155.573 38.7548 155.573 39.6667C155.579 44.4995 155.585 49.3264 155.608 54.1591C155.608 54.5483 155.492 54.6645 155.115 54.6645C152.639 54.6645 150.169 54.6703 147.693 54.7051C147.078 54.7109 147.275 54.2927 147.275 54.0081C147.275 47.9614 147.281 41.9205 147.281 35.8737C147.281 30.8493 147.281 25.8249 147.252 20.8005C147.252 20.2255 147.38 20.0396 148 20.0454C150.256 20.0803 152.511 20.0454 154.767 20.0106C155.399 19.9989 155.614 20.1674 155.614 20.8586C155.579 25.732 155.596 30.6112 155.596 35.5775C156.101 34.927 156.553 34.3229 157.029 33.7362C159.615 30.5531 162.207 27.3758 164.793 24.1985C165.819 22.9381 166.846 21.6834 167.855 20.4172C168.121 20.0803 168.469 20.0396 168.829 20.0396C171.572 20.0396 174.309 20.0512 177.051 20.0686C177.214 20.0686 177.417 20.0396 177.463 20.2603C177.51 20.4694 177.411 20.6321 177.249 20.7657C176.269 21.5614 175.509 22.5779 174.686 23.5073C173.81 24.489 173.004 25.5519 172.088 26.4987C170.94 27.6895 170.012 29.0603 168.812 30.2162C168.04 30.9539 167.46 31.9123 166.724 32.7139C165.964 33.5387 165.245 34.3984 164.463 35.1941C164.062 35.6066 164.115 35.9086 164.428 36.321C165.796 38.11 167.147 39.9107 168.504 41.7114C171.531 45.7251 174.552 49.7388 177.579 53.7525C177.695 53.9093 177.811 54.0604 177.915 54.223C178.13 54.5483 178.049 54.7109 177.649 54.6935C174.668 54.5541 171.682 54.6412 168.701 54.6761C168.348 54.6761 168.127 54.5134 167.936 54.2288C166.347 51.8241 164.654 49.489 162.978 47.1482C161.001 44.3891 159.035 41.6184 157.052 38.8652C156.588 38.2262 156.188 37.5408 155.759 36.8786C155.695 36.8961 155.631 36.9135 155.567 36.9309L155.573 36.9251Z" fill="#67656B"/>
<path id="Vector_4" d="M103.402 54.9374C103.066 54.9896 102.834 54.7863 102.614 54.6179C97.6618 50.7668 92.5184 47.1655 87.4619 43.4538C82.0112 39.4575 76.5488 35.4729 71.0748 31.494C67.3115 28.7582 63.525 26.0514 59.7558 23.333C58.8744 22.694 58.0916 21.9215 57.1116 21.4219C56.8971 21.3116 56.6361 21.1257 56.7115 20.8759C56.7985 20.5797 57.1348 20.7249 57.3494 20.7249C68.9235 20.7191 80.4919 20.7191 92.0661 20.7249C99.0999 20.7249 106.134 20.7249 113.173 20.7423C113.62 20.7423 114.31 20.6436 114.42 21.0328C114.53 21.4394 113.811 21.5091 113.475 21.753C111.961 22.845 110.436 23.9138 108.923 25.0058C105.171 27.7184 101.431 30.4368 97.6792 33.1494C96.6296 33.9104 96.6702 33.9568 97.0819 35.165C98.0387 37.9996 98.9317 40.8574 99.8479 43.7094C100.845 46.7879 101.825 49.8723 102.852 52.945C103.072 53.6014 103.495 54.1881 103.42 54.9374H103.402ZM95.7366 44.0928C94.9306 42.3618 94.4957 40.7296 93.9738 39.1264C93.278 36.9831 92.5937 34.8397 91.8921 32.6964C91.7935 32.3943 91.7877 32.2143 92.1125 31.9877C94.4667 30.3265 96.7978 28.6246 99.1347 26.9401C99.9871 26.3244 100.851 25.7261 101.779 25.0697C101.443 24.9013 101.153 24.9187 100.868 24.9245C92.4546 25.1046 84.0407 25.0233 75.6268 24.9942C73.7596 24.9884 71.8925 25.0755 70.0253 24.9303C69.8281 24.9129 69.5382 24.8316 69.4512 25.0813C69.3352 25.4008 69.6542 25.4589 69.8513 25.5751C70.2224 25.79 70.6167 25.9875 70.9647 26.2372C74.5251 28.7988 78.0854 31.3546 81.6226 33.951C85.9427 37.1167 90.3323 40.1778 94.5537 43.4771C94.8436 43.7036 95.1568 43.872 95.7308 44.0812L95.7366 44.0928Z" fill="#68B236"/>
<path id="Vector_5" d="M30.8779 37.291C30.8779 31.7612 30.8779 26.2257 30.8721 20.6959C30.8721 20.2661 30.9069 20.0628 31.4403 20.0686C34.5658 20.1093 37.6971 20.0105 40.8226 20.1383C43.0493 20.2312 45.3108 20.1615 47.4911 20.8528C49.5206 21.4975 51.4342 22.2933 52.8665 23.9603C54.0842 25.3834 54.7394 27.0505 54.954 28.8802C55.3019 31.8368 54.925 34.6771 52.9708 37.047C51.3182 39.051 49.1379 40.2592 46.5923 40.8633C44.354 41.3976 42.0925 41.4674 39.8136 41.4151C39.2802 41.4035 39.1874 41.5719 39.1932 42.0598C39.2106 45.7947 39.2106 49.5354 39.1816 53.2704C39.1816 53.7292 39.5585 54.3333 39.112 54.6179C38.7873 54.8212 38.219 54.6412 37.7609 54.6412C35.627 54.6528 33.4931 54.6528 31.3592 54.6935C30.9822 54.6993 30.8837 54.5424 30.8779 54.2404C30.8779 53.6595 30.8895 53.0787 30.8895 52.4978C30.8895 47.4269 30.8895 42.3561 30.8895 37.2852C30.8895 37.2852 30.8895 37.2852 30.8837 37.2852L30.8779 37.291ZM39.1758 30.5763C39.1758 30.5763 39.2338 30.5763 39.2628 30.5763C39.2628 32.1272 39.2628 33.6781 39.2628 35.229C39.2628 35.4323 39.1584 35.7285 39.6107 35.6646C40.637 35.5078 41.6808 35.6065 42.7188 35.4381C44.209 35.1999 46.0936 34.1311 46.3661 32.6151C46.4879 31.9471 46.6271 31.2733 46.6329 30.6053C46.6503 28.613 45.937 26.9227 44.2728 26.2373C42.7362 25.6042 41.1473 25.6681 39.5643 25.5984C39.1004 25.5809 39.1816 25.9178 39.1816 26.2024C39.1816 27.6604 39.1816 29.1125 39.1816 30.5705L39.1758 30.5763Z" fill="#67656B"/>
<path id="Vector_6" d="M14.0038 19.2438C16.8277 19.1509 19.3908 19.6388 21.7334 20.998C22.783 21.6079 23.7224 22.3804 24.5052 23.3272C24.8415 23.7338 24.7835 24.0126 24.3718 24.3553C22.9801 25.4822 21.5537 26.5684 20.3765 27.9334C20.2142 28.1193 20.1272 28.0147 20.0402 27.9334C19.8836 27.7882 19.7329 27.6256 19.6053 27.4455C18.5267 25.9527 17.0481 25.1976 15.2273 25.0756C13.7138 24.971 12.1772 25.0001 10.8551 25.7494C10.0781 26.1908 9.36483 26.9227 9.09809 27.8753C8.86035 28.735 8.86615 29.583 9.42862 30.373C10.4898 31.8658 12.0322 32.6616 13.6443 33.347C16.1841 34.4274 18.7935 35.3509 21.1188 36.8728C23.6238 38.5108 25.6301 40.567 26.065 43.663C26.6159 47.6012 24.9981 51.2083 21.5711 53.2994C18.4572 55.1988 15.0012 55.6693 11.3944 55.4892C8.89514 55.3615 6.48869 54.9432 4.2504 53.7989C2.74854 53.0322 1.54241 51.9112 0.585632 50.5287C0.405873 50.2673 0.423269 50.0815 0.672612 49.8491C2.0237 48.6003 3.32261 47.2934 4.53453 45.8993C4.78968 45.6031 5.01582 45.4114 5.28256 45.9283C6.48869 48.3099 8.6168 49.2741 11.116 49.5296C12.9136 49.7155 14.6764 49.5355 16.2943 48.5829C18.086 47.5257 19.124 44.5982 16.9089 42.8266C16.0333 42.1237 15.1229 41.4964 14.1198 41.0085C11.4524 39.6957 8.6168 38.7257 6.12337 37.0761C4.45915 35.9783 2.80653 34.8049 1.88454 32.981C0.452262 30.1465 0.487054 27.2828 2.25565 24.5819C4.08803 21.7763 6.84821 20.3939 10.0317 19.6852C11.3886 19.3832 12.7455 19.1973 14.0038 19.2612V19.2438Z" fill="#67656B"/>
<path id="Vector_7" d="M71.8981 68.8083C71.4342 69.0581 71.2834 69.4879 71.1443 69.8771C70.4368 71.8984 69.3467 73.7398 68.4479 75.6682C67.3635 77.9974 66.2676 80.3209 65.1832 82.6443C65.1021 82.8185 65.0731 83.016 64.9919 83.1903C64.8875 83.4052 65.0093 83.7828 64.6034 83.7944C64.2728 83.8002 64.1569 83.5388 64.0641 83.289C63.6234 82.1041 62.9565 81.0237 62.4869 79.8562C61.0082 76.1852 58.9555 72.7813 57.6044 69.0581C57.5754 68.9767 57.4942 68.9186 57.442 68.8489C57.21 68.9942 57.2332 69.1916 57.2274 69.3833C57.1231 72.8278 56.3808 76.2142 56.2069 79.6529C56.1547 80.6403 56.0445 81.622 55.9169 82.6036C55.859 83.0625 55.598 83.1148 55.3023 83.2309C55.2385 83.2542 55.1573 83.2368 55.0877 83.2426C53.812 83.3181 53.7772 83.3181 53.9396 82.0692C54.2875 79.3799 54.6876 76.6905 55.0529 74.0011C55.511 70.6147 56.0909 67.2458 56.3113 63.8303C56.3287 63.5922 56.3287 63.3889 56.6418 63.3947C56.8621 63.3947 57.1057 63.3657 57.1521 63.6619C57.3724 65.085 58.2306 66.2409 58.7815 67.5246C60.4805 71.4512 62.4173 75.2732 64.0699 79.2288C64.1047 79.316 64.1395 79.4089 64.1859 79.496C64.2728 79.6354 64.2844 79.8678 64.4874 79.8678C64.6845 79.8678 64.7309 79.6587 64.7889 79.5077C65.2992 78.0904 66.0356 76.7776 66.6677 75.4184C68.4537 71.5732 70.2745 67.7453 72.0837 63.9117C72.1938 63.6793 72.391 63.5167 72.6519 63.4993C73.0115 63.4702 72.9071 63.7723 72.9187 63.9581C73.0926 66.9147 73.5507 69.8364 73.9334 72.7697C74.2988 75.5811 74.6989 78.3866 75.0874 81.1979C75.157 81.7033 75.2671 82.197 75.3483 82.7024C75.3715 82.8592 75.4701 83.1032 75.2787 83.1612C74.6931 83.3471 74.0726 83.3123 73.4869 83.1961C73.0694 83.1148 73.1796 82.6501 73.1448 82.3248C72.7853 78.5841 72.4316 74.8376 72.0663 71.0969C71.9909 70.3592 72.0953 69.6041 71.9097 68.8199L71.8981 68.8083Z" fill="#68B236"/>
<path id="Vector_8" d="M134.611 63.4354C137.568 63.4993 140.554 64.783 142.787 67.5014C145.669 71.0097 145.733 76.3072 142.364 80.0246C139.279 83.4285 133.724 84.6424 129.473 82.8999C126.527 81.6917 124.382 79.6819 123.321 76.6324C122.132 73.2286 122.979 69.2091 125.658 66.6475C128.018 64.3938 130.859 63.4702 134.611 63.4296V63.4354ZM142.717 73.6178C142.874 70.1791 140.317 67.2051 138.026 66.1305C134.698 64.5622 131.474 64.7539 128.395 66.8682C125.518 68.8432 124.191 72.9208 125.368 76.1619C126.962 80.5532 131.346 82.47 135.527 81.8195C139.783 81.1631 142.862 77.1668 142.717 73.6178Z" fill="#68B236"/>
<path id="Vector_9" d="M40.4454 63.4005C43.971 63.6445 47.0559 64.8643 49.2826 67.8266C51.9036 71.3118 51.6252 76.6905 48.6911 79.9259C47.6473 81.076 46.4354 81.9821 45.0205 82.592C40.5672 84.4914 35.0758 84.1603 31.3125 79.7632C27.1548 74.9015 28.6567 67.3213 35.2208 64.4286C36.1312 64.0278 37.0937 63.7548 38.0737 63.598C38.8392 63.476 39.6162 63.4644 40.4454 63.4005ZM40.1786 65.1373C39.332 65.1431 38.4738 65.1837 37.6562 65.4045C34.3162 66.2874 30.7732 69.6099 31.2371 74.2916C31.5096 77.0797 32.9071 79.1882 35.2324 80.5939C37.7896 82.1447 40.5614 82.3887 43.4027 81.3548C45.9831 80.4196 47.8445 78.6422 48.5693 76.0341C50.3495 69.6273 45.1597 65.0734 40.1786 65.1373Z" fill="#68B236"/>
<path id="Vector_10" d="M88.9693 83.6607C84.8232 83.5794 81.5238 81.9297 79.3435 78.3168C77.024 74.4832 77.8706 69.3252 81.2338 66.3744C85.838 62.3375 92.8196 62.3781 97.273 66.6067C99.5461 68.7675 100.393 71.5557 100.056 74.6981C99.4765 80.1698 94.2171 83.7478 88.9635 83.6549L88.9693 83.6607ZM97.9456 73.548C98.0732 71.4279 97.0004 69.3774 95.8175 68.0647C92.4137 64.2717 85.7858 63.9464 82.1326 68.3319C79.8132 71.12 79.5116 75.0001 81.6455 78.0961C83.4083 80.6577 85.9018 81.7845 88.9287 81.953C93.7996 82.2144 98.1544 78.1716 97.9456 73.5538V73.548Z" fill="#68B236"/>
<path id="Vector_11" d="M163.343 78.8744C163.343 78.038 163.343 77.248 163.343 76.4581C163.332 72.4792 163.332 68.4945 163.291 64.5157C163.291 63.9813 163.407 63.8186 163.946 63.7838C165.477 63.685 165.216 63.6502 165.216 64.9862C165.216 70.4462 165.228 75.9063 165.216 81.3721C165.216 82.1156 165.471 82.8475 165.297 83.6026C164.775 83.591 164.503 83.2192 164.242 82.8998C161.702 79.8038 158.861 76.9808 156.234 73.9604C154.587 72.061 152.819 70.2661 151.23 68.3087C151.119 68.1751 151.004 67.9485 150.772 68.0589C150.592 68.146 150.661 68.3609 150.667 68.5236C150.812 72.456 150.731 76.3826 150.76 80.315C150.76 81.0933 150.76 81.8717 150.818 82.6442C150.853 83.1205 150.673 83.2134 150.255 83.2367C148.777 83.3064 148.783 83.318 148.783 81.802C148.777 75.8772 148.759 69.9583 148.759 64.0336C148.759 63.8128 148.591 63.4875 148.881 63.3888C149.2 63.2784 149.484 63.4817 149.705 63.7315C150.922 65.1139 152.123 66.5138 153.358 67.8788C156.17 70.9922 158.994 74.0998 161.835 77.1783C162.34 77.7243 162.607 78.4795 163.343 78.8744Z" fill="#68B236"/>
<path id="Vector_12" d="M85.2986 2.0449e-05C85.6234 0.168469 85.7277 0.464706 85.8205 0.760942C87.6007 6.21518 89.3809 11.6752 91.1669 17.1295C91.3003 17.5419 91.509 17.9311 91.6482 18.3377C91.7874 18.7384 91.7816 19.0173 91.1901 18.9766C90.1985 18.9127 89.2011 18.872 88.2096 18.9359C87.4383 18.9882 87.218 18.5758 87.0382 17.9659C86.5628 16.3744 86.0525 14.7886 85.5538 13.1971C85.316 13.2029 85.3102 13.4062 85.2754 13.5456C84.8231 15.1604 84.2027 16.7345 83.8606 18.3783C83.7678 18.814 83.4894 18.9301 83.1357 18.9301C81.9934 18.9301 80.8569 18.9127 79.7145 18.9011C79.0709 18.8953 79.3376 18.4306 79.413 18.175C79.6971 17.2282 80.0508 16.2989 80.3582 15.3521C81.9876 10.2986 83.8026 5.29743 85.2175 0.174277C85.2349 0.110383 85.2754 0.0522975 85.316 -0.0115967L85.2986 2.0449e-05Z" fill="#67656B"/>
<path id="Vector_13" d="M75.3658 44.2554C76.8734 43.146 78.3405 42.1005 79.767 41.0084C80.1265 40.7354 80.3526 40.7354 80.6947 41.0084C81.495 41.6358 82.2836 42.2747 83.165 42.7917C83.6173 43.0531 83.8318 43.3319 83.1998 43.7094C81.6283 44.6562 80.1903 45.8005 78.7 46.8577C77.4707 47.729 76.2877 48.7048 75.041 49.547C73.4 50.6565 71.9097 51.9634 70.2107 53.0031C69.5033 53.4388 68.7901 53.9732 68.1812 54.5889C68.0304 54.7399 67.8275 54.9548 67.6187 54.8328C67.3636 54.6818 67.5781 54.4378 67.6477 54.252C68.9002 50.8307 69.9672 47.3456 71.0747 43.8779C71.8286 41.508 72.7158 39.1846 73.3246 36.7682C73.5508 35.8795 73.5682 35.8911 74.293 36.4022C75.0642 36.9483 75.8123 37.5291 76.6183 38.0112C77.1575 38.3307 77.2097 38.685 77.0184 39.2136C76.4559 40.7761 75.9108 42.3502 75.3658 43.9243C75.3368 44.0057 75.3658 44.0986 75.3658 44.2554Z" fill="#67656B"/>
<path id="Vector_14" d="M20.3127 74.158C21.5362 75.6508 22.7945 77.1262 23.9833 78.6538C24.9806 79.9375 26.0244 81.1747 27.074 82.4178C27.2305 82.5978 27.5379 82.8302 27.4045 83.0857C27.2769 83.3355 26.9232 83.2019 26.6681 83.2484C25.5025 83.4575 24.7835 82.9463 24.0818 82.0053C22.1451 79.4031 20.0807 76.888 18.0744 74.338C17.883 74.0941 17.6685 73.9373 17.3612 73.8966C17.0306 73.8501 16.8567 73.9431 16.8683 74.3148C16.9379 77.0797 16.7581 79.8446 16.9611 82.6094C16.9959 83.1032 16.8799 83.2426 16.3986 83.2426C14.9547 83.2542 14.9605 83.2716 14.9547 81.8543C14.9373 76.6382 14.9199 71.4221 14.9025 66.2061C14.9025 65.5729 14.8677 64.9456 14.8445 64.3125C14.8329 64.0743 14.8445 63.8478 15.1577 63.8536C17.4308 63.8768 19.7328 63.5457 21.9479 64.2544C24.6153 65.1024 25.6301 66.7753 25.4271 69.7841C25.2706 72.0727 23.6005 73.7398 21.3101 73.9024C20.8578 73.9334 20.5253 74.0186 20.3127 74.158ZM18.7992 65.5555C18.3701 65.5381 18.0222 65.5497 17.6917 65.4974C17.0422 65.3987 16.8509 65.6659 16.8625 66.299C16.9031 67.8499 16.8683 69.4066 16.8973 70.9575C16.9089 71.4802 16.6827 72.1366 17.0422 72.4851C17.2626 72.7 17.9062 72.4561 18.3585 72.4503C19.4777 72.4386 20.591 72.3864 21.658 72.0146C22.2726 71.7997 22.8525 71.4454 23.0207 70.8064C23.3454 69.5692 23.4208 68.3146 22.8177 67.1122C22.5452 66.572 22.1451 66.1944 21.5652 65.9679C20.6374 65.6136 19.6806 65.5381 18.7992 65.5439V65.5555Z" fill="#68B236"/>
<path id="Vector_15" d="M0.591736 73.5539C0.591736 70.667 0.591736 67.7801 0.591736 64.8933C0.591736 63.8652 0.591736 63.8652 1.60071 63.871C3.3693 63.8826 5.1379 63.7838 6.9065 63.9755C9.82323 64.295 11.3773 66.026 11.5049 68.9709C11.586 70.8819 11.1395 72.4967 9.48111 73.5771C8.35037 74.3148 7.00508 74.3612 5.71197 74.4774C4.84217 74.5587 3.96657 74.5587 3.09677 74.5645C2.67926 74.5645 2.5169 74.6633 2.5169 75.1454C2.5169 77.5734 2.5053 79.9956 2.58068 82.4235C2.58648 82.6849 2.77204 83.1147 2.38933 83.1786C1.85585 83.2658 1.24119 83.411 0.771495 83.1089C0.510555 82.9463 0.632327 82.4293 0.632327 82.0692C0.632327 80.6403 0.632327 79.2056 0.638126 77.7767C0.638126 76.371 0.638126 74.9595 0.638126 73.5539C0.62073 73.5539 0.603334 73.5539 0.585938 73.5539H0.591736ZM2.53429 69.2439C2.53429 69.2439 2.56909 69.2439 2.58648 69.2439C2.58648 70.3591 2.58648 71.4744 2.58648 72.5896C2.58648 72.7987 2.53429 73.0369 2.89961 73.002C4.10574 72.8917 5.31186 72.8278 6.51219 72.6884C7.20223 72.6071 7.88648 72.4618 8.46054 71.9797C9.50431 71.1026 9.46372 69.9409 9.33615 68.7734C9.15639 67.0715 8.25759 66.1015 6.60497 65.7297C5.38724 65.4567 4.14633 65.5903 2.91701 65.5206C2.5111 65.4974 2.5227 65.7471 2.5285 66.0434C2.54009 67.1122 2.5285 68.1751 2.5285 69.2439H2.53429Z" fill="#68B236"/>
<path id="Vector_16" d="M174.871 63.4063C176.448 63.4876 177.921 63.8593 178.982 65.1605C179.214 65.4451 179.666 65.7878 179.272 66.1944C178.675 66.8101 177.962 66.8449 177.567 66.3048C176.384 64.6667 173.404 64.8178 172.308 66.0492C171.421 67.0482 171.276 68.3319 172.024 69.4298C172.615 70.2952 173.433 70.8877 174.326 71.3872C175.926 72.2818 177.654 72.9614 179.028 74.2509C179.678 74.8608 180.084 75.581 180.211 76.4349C180.409 77.7592 180.42 79.0778 179.962 80.3789C179.568 81.4883 178.889 82.3596 177.84 82.8475C175.439 83.9628 173.038 84.1196 170.719 82.5978C169.913 82.0692 169.356 81.3083 168.887 80.4718C168.515 79.8097 168.887 79.5309 169.403 79.3217C169.884 79.1243 170.394 78.8222 170.696 79.6238C171.386 81.4593 172.963 81.9066 174.679 81.9646C176.431 82.0227 177.73 81.1456 178.327 79.6006C178.826 78.2994 178.797 76.1793 177.063 75.0699C176.46 74.6807 175.816 74.3554 175.201 74.0011C173.462 73.0078 171.502 72.2934 170.267 70.5799C168.742 68.4597 169.397 65.5148 171.67 64.2253C172.662 63.6619 173.717 63.3482 174.877 63.4063H174.871Z" fill="#68B236"/>
<path id="Vector_17" d="M106.226 74.4135C106.226 71.6951 106.208 68.9767 106.243 66.2583C106.243 65.8111 106.145 65.6542 105.71 65.6542C104.208 65.6542 102.706 65.6136 101.204 65.6426C100.671 65.6542 100.404 65.4974 100.479 64.963C100.543 64.5041 100.247 63.8303 101.158 63.8303C105.159 63.842 109.16 63.8478 113.161 63.8129C114.089 63.8071 113.88 64.388 113.932 64.9282C113.996 65.5903 113.695 65.6716 113.126 65.6542C111.671 65.6136 110.215 65.6542 108.766 65.631C108.279 65.6194 108.122 65.7878 108.145 66.2641C108.354 71.1666 108.18 76.069 108.215 80.9656C108.215 81.378 108.244 81.7904 108.273 82.2028C108.331 83.0102 108.215 83.1612 107.397 83.2368C106.278 83.3413 106.237 83.3006 106.237 82.2086C106.237 79.6122 106.237 77.0158 106.237 74.4193L106.226 74.4135Z" fill="#68B236"/>
<path id="Vector_18" d="M116.733 73.4203C116.733 70.4347 116.733 67.4491 116.733 64.4635C116.733 64.0511 116.687 63.627 117.33 63.9465C117.574 64.0685 117.783 63.8187 118.015 63.7781C118.716 63.6561 118.884 63.7897 118.884 64.5041C118.884 67.1238 118.85 69.7493 118.879 72.3689C118.913 75.8134 118.722 79.2579 118.913 82.7024C118.937 83.0857 118.809 83.2367 118.432 83.2251C116.611 83.167 116.849 83.6201 116.849 81.7149C116.849 78.95 116.849 76.1793 116.849 73.4145C116.814 73.4145 116.774 73.4145 116.739 73.4145L116.733 73.4203Z" fill="#68B236"/>
</g>
<defs>
<clipPath id="clip0_474_116">
<rect width="181" height="94" fill="white"/>
</clipPath>
</defs>
</svg>
