<svg width="35" height="35" viewBox="0 0 35 35" fill="none" xmlns="http://www.w3.org/2000/svg">
<rect width="35" height="35" fill="#1E1E1E"/>
<rect id="Rectangle 1367" x="-2297" y="-2100" width="2563" height="2292" fill="#D9D9D9"/>
<g id="Frame" clip-path="url(#clip0_0_1)">
<g id="Clip path group">
<mask id="mask0_0_1" style="mask-type:luminance" maskUnits="userSpaceOnUse" x="0" y="0" width="35" height="35">
<g id="clip0_1029_3323">
<path id="Vector" d="M35 0H0V35H35V0Z" fill="white"/>
</g>
</mask>
<g mask="url(#mask0_0_1)">
<g id="Group">
<path id="Vector_2" d="M34.5 0.5H0.5V34.5H34.5V0.5Z" fill="white" stroke="#EEEEEE"/>
<path id="Vector_3" d="M13.5775 11.07C13.4675 11.12 13.3675 11.18 13.2675 11.27C13.1775 11.36 13.1175 11.46 13.0675 11.57C12.9775 11.79 12.9775 12.05 13.0675 12.28C13.1175 12.39 13.1775 12.49 13.2675 12.58L17.7575 17L13.2775 21.42C13.1875 21.51 13.1275 21.61 13.0775 21.72C12.9875 21.95 12.9875 22.21 13.0775 22.43C13.1275 22.54 13.1975 22.64 13.2775 22.73C13.3675 22.81 13.4675 22.88 13.5875 22.93C13.6975 22.98 13.8175 23 13.9375 23C14.0575 23 14.1775 22.98 14.2875 22.93C14.3975 22.88 14.4975 22.82 14.5875 22.73L19.7375 17.65C19.8275 17.56 19.8875 17.46 19.9375 17.35C19.9875 17.24 20.0075 17.12 20.0075 17C20.0075 16.88 19.9875 16.76 19.9375 16.64C19.8875 16.53 19.8275 16.43 19.7375 16.34L14.5875 11.27C14.4975 11.19 14.3975 11.12 14.2875 11.07C14.1775 11.03 14.0575 11 13.9375 11C13.8175 11 13.6975 11.02 13.5775 11.07Z" fill="#333333"/>
<path id="Vector_4" fill-rule="evenodd" clip-rule="evenodd" d="M23 10.25C23.4142 10.25 23.75 10.5858 23.75 11V23C23.75 23.4142 23.4142 23.75 23 23.75C22.5858 23.75 22.25 23.4142 22.25 23V11C22.25 10.5858 22.5858 10.25 23 10.25Z" fill="#333333"/>
</g>
</g>
</g>
</g>
<defs>
<clipPath id="clip0_0_1">
<rect width="35" height="35" fill="white"/>
</clipPath>
</defs>
</svg>
