<svg width="7" height="12" viewBox="0 0 7 12" fill="none" xmlns="http://www.w3.org/2000/svg">
<path id="Vector" d="M0.577499 0.0699997C0.467499 0.12 0.367499 0.18 0.267499 0.27C0.177499 0.360001 0.1175 0.46 0.0674995 0.57C-0.0225005 0.79 -0.0225005 1.05 0.0674995 1.28C0.1175 1.39 0.1775 1.49 0.2675 1.58L4.7575 6L0.2775 10.42C0.1875 10.51 0.1275 10.61 0.0774999 10.72C-0.0125 10.95 -0.0125 11.21 0.0775 11.43C0.1275 11.54 0.1975 11.64 0.2775 11.73C0.3675 11.81 0.4675 11.88 0.5875 11.93C0.6975 11.98 0.8175 12 0.9375 12C1.0575 12 1.1775 11.98 1.2875 11.93C1.3975 11.88 1.4975 11.82 1.5875 11.73L6.7375 6.65C6.8275 6.56 6.8875 6.46 6.9375 6.35C6.9875 6.24 7.0075 6.12 7.0075 6C7.0075 5.88 6.9875 5.76 6.9375 5.64C6.8875 5.53 6.8275 5.43 6.7375 5.34L1.5875 0.27C1.4975 0.19 1.3975 0.12 1.2875 0.0699996C1.1775 0.0299997 1.0575 -4.62248e-08 0.937499 -4.09794e-08C0.817499 -3.57341e-08 0.697499 0.0199995 0.577499 0.0699997Z" fill="#333333"/>
</svg>
